<?xml version="1.0" encoding="UTF-8" standalone="no"?>
<!-- Created with Inkscape (http://www.inkscape.org/) -->

<svg
   xmlns:dc="http://purl.org/dc/elements/1.1/"
   xmlns:cc="http://creativecommons.org/ns#"
   xmlns:rdf="http://www.w3.org/1999/02/22-rdf-syntax-ns#"
   xmlns:svg="http://www.w3.org/2000/svg"
   xmlns="http://www.w3.org/2000/svg"
   xmlns:sodipodi="http://sodipodi.sourceforge.net/DTD/sodipodi-0.dtd"
   xmlns:inkscape="http://www.inkscape.org/namespaces/inkscape"
   width="210mm"
   height="297mm"
   viewBox="0 0 210 297"
   version="1.1"
   id="svg8"
   inkscape:version="0.92.2 5c3e80d, 2017-08-06"
   sodipodi:docname="console.svg">
  <defs
     id="defs2" />
  <sodipodi:namedview
     id="base"
     pagecolor="#ffffff"
     bordercolor="#666666"
     borderopacity="1.0"
     inkscape:pageopacity="0.0"
     inkscape:pageshadow="2"
     inkscape:zoom="0.7"
     inkscape:cx="290.40576"
     inkscape:cy="586.7937"
     inkscape:document-units="mm"
     inkscape:current-layer="layer1"
     showgrid="false"
     inkscape:snap-global="false"
     inkscape:window-width="1236"
     inkscape:window-height="672"
     inkscape:window-x="-2"
     inkscape:window-y="0"
     inkscape:window-maximized="0" />
  <metadata
     id="metadata5">
    <rdf:RDF>
      <cc:Work
         rdf:about="">
        <dc:format>image/svg+xml</dc:format>
        <dc:type
           rdf:resource="http://purl.org/dc/dcmitype/StillImage" />
        <dc:title></dc:title>
      </cc:Work>
    </rdf:RDF>
  </metadata>
  <g
     inkscape:label="Layer 1"
     inkscape:groupmode="layer"
     id="layer1">
    <g
       id="g5212"
       transform="translate(1.5119048,-27.214286)">
      <path
         style="fill:#fcf7e4;stroke-width:0.26458335"
         d="M 29.150438,146.53877 V 89.124189 h 48.683335 48.683337 v 57.414581 57.41459 H 77.833773 29.150438 Z"
         id="path4207"
         inkscape:connector-curvature="0" />
      <path
         style="fill:#f290c1;stroke-width:0.26458335"
         d="m 31.796271,203.68877 c 0,-0.14552 -0.184005,-0.26458 -0.408901,-0.26458 -0.529291,0 -1.707765,-1.17848 -1.707765,-1.70777 0,-0.22489 -0.119063,-0.4089 -0.264584,-0.4089 -0.175536,0 -0.264583,-18.43264 -0.264583,-54.76875 0,-36.33611 0.08905,-54.768748 0.264583,-54.768748 0.145521,0 0.264584,-0.184005 0.264584,-0.408901 0,-0.529291 1.178474,-1.707765 1.707765,-1.707765 0.224896,0 0.408901,-0.119063 0.408901,-0.264584 0,-0.175375 15.522223,-0.264583 46.037502,-0.264583 30.515277,0 46.037497,0.08921 46.037497,0.264583 0,0.145521 0.18401,0.264584 0.4089,0.264584 0.52929,0 1.70777,1.178474 1.70777,1.707765 0,0.224896 0.11906,0.408901 0.26458,0.408901 0.17554,0 0.26459,18.432638 0.26459,54.768748 0,36.33611 -0.0891,54.76875 -0.26459,54.76875 -0.14552,0 -0.26458,0.18401 -0.26458,0.4089 0,0.52929 -1.17848,1.70777 -1.70777,1.70777 -0.22489,0 -0.4089,0.11906 -0.4089,0.26458 0,0.17538 -15.52222,0.26459 -46.037497,0.26459 -30.515279,0 -46.037502,-0.0892 -46.037502,-0.26459 z m 91.016669,-1.05833 c 0,-0.14552 0.184,-0.26458 0.4089,-0.26458 0.52929,0 1.70777,-1.17848 1.70777,-1.70777 0,-0.2249 0.11906,-0.4089 0.26458,-0.4089 0.17552,0 0.26458,-18.07986 0.26458,-53.71042 0,-35.63055 -0.0891,-53.710414 -0.26458,-53.710414 -0.14552,0 -0.26458,-0.184006 -0.26458,-0.408902 0,-0.529291 -1.17848,-1.707765 -1.70777,-1.707765 -0.2249,0 -0.4089,-0.119062 -0.4089,-0.264583 0,-0.175352 -15.16944,-0.264584 -44.979167,-0.264584 -29.809724,0 -44.979168,0.08923 -44.979168,0.264584 0,0.145521 -0.184006,0.264583 -0.408902,0.264583 -0.529291,0 -1.707765,1.178474 -1.707765,1.707765 0,0.224896 -0.119062,0.408902 -0.264583,0.408902 -0.17552,0 -0.264584,18.079864 -0.264584,53.710414 0,35.63056 0.08906,53.71042 0.264584,53.71042 0.145521,0 0.264583,0.184 0.264583,0.4089 0,0.52929 1.178474,1.70777 1.707765,1.70777 0.224896,0 0.408902,0.11906 0.408902,0.26458 0,0.17535 15.169444,0.26458 44.979168,0.26458 29.809727,0 44.979167,-0.0892 44.979167,-0.26458 z m -51.329168,-3.70417 c 0,-0.14552 -0.184004,-0.26458 -0.4089,-0.26458 -0.224896,0 -0.701146,-0.29225 -1.058333,-0.64943 -0.547357,-0.54736 -0.649433,-0.90273 -0.649433,-2.26099 0,-1.35825 0.102076,-1.71363 0.649433,-2.26098 l 0.64943,-0.64943 h 7.167804 7.167803 l 0.64943,0.64943 c 0.547357,0.54735 0.649433,0.90273 0.649433,2.26098 0,1.35826 -0.102076,1.71363 -0.649433,2.26099 -0.357187,0.35718 -0.833437,0.64943 -1.058333,0.64943 -0.224896,0 -0.4089,0.11906 -0.4089,0.26458 0,0.16904 -2.293057,0.26459 -6.35,0.26459 -4.056944,0 -6.350001,-0.0956 -6.350001,-0.26459 z m 28.045834,-1.5875 c 0,-0.14552 -0.357187,-0.26458 -0.79375,-0.26458 -0.436562,0 -0.79375,-0.11906 -0.79375,-0.26458 0,-0.14552 -0.182562,-0.26459 -0.405693,-0.26459 -0.223134,0 -0.818446,-0.41275 -1.322917,-0.91722 -0.504473,-0.50447 -0.917223,-1.09978 -0.917223,-1.32292 0,-0.22313 -0.119063,-0.40569 -0.264583,-0.40569 -0.145521,0 -0.264584,-0.23812 -0.264584,-0.52917 0,-0.29104 -0.119062,-0.52916 -0.264583,-0.52916 -0.145521,0 -0.264583,-0.64359 -0.264583,-1.43021 0,-2.38385 1.508577,-4.65209 3.931999,-5.91198 1.19385,-0.62066 4.005501,-0.85282 4.005501,-0.33073 0,0.14552 0.18118,0.26458 0.40263,0.26458 0.22144,0 1.05488,0.65226 1.85208,1.44946 0.7972,0.7972 1.44946,1.63064 1.44946,1.85208 0,0.22145 0.11906,0.40263 0.26458,0.40263 0.15679,0 0.26458,0.97014 0.26458,2.38125 0,1.41111 -0.10779,2.38125 -0.26458,2.38125 -0.14552,0 -0.26458,0.184 -0.26458,0.4089 0,0.50003 -1.16643,1.70777 -1.64936,1.70777 -0.19277,0 -0.52212,0.23812 -0.73189,0.52916 -0.22398,0.31075 -0.68493,0.52917 -1.11675,0.52917 -0.40443,0 -0.73534,0.11906 -0.73534,0.26458 0,0.14552 -0.47625,0.26459 -1.05833,0.26459 -0.58208,0 -1.058334,-0.11907 -1.058334,-0.26459 z m -55.231772,-1.71868 c -0.229809,-0.26102 -0.330729,-1.46899 -0.330729,-3.95869 v -3.58304 h -3.319318 c -3.171437,0 -3.348252,-0.0289 -3.96875,-0.64944 -0.618058,-0.61805 -0.649432,-0.80431 -0.649432,-3.85535 0,-2.42569 0.09199,-3.29792 0.377976,-3.5839 0.290445,-0.29045 1.209524,-0.37798 3.96875,-0.37798 h 3.590774 v -3.59077 c 0,-2.75923 0.08753,-3.67831 0.377976,-3.96875 0.286076,-0.28608 1.159127,-0.37798 3.590774,-0.37798 3.318921,0 3.96875,0.19186 3.96875,1.17173 0,0.22867 0.119063,0.41577 0.264584,0.41577 0.161689,0 0.264583,1.23473 0.264583,3.175 v 3.175 h 3.326191 c 2.529919,0 3.416676,0.0905 3.704167,0.37798 0.285985,0.28598 0.377975,1.15821 0.377975,3.5839 0,3.05104 -0.03137,3.2373 -0.649433,3.85535 -0.620498,0.6205 -0.797311,0.64944 -3.968748,0.64944 h -3.319319 v 3.59077 c 0,2.75923 -0.08753,3.6783 -0.377976,3.96875 -0.541196,0.5412 -6.750097,0.52591 -7.228795,-0.0178 z m 68.460936,-9.92298 c 0,-0.14552 -0.35718,-0.26459 -0.79375,-0.26459 -0.43656,0 -0.79375,-0.11906 -0.79375,-0.26458 0,-0.14552 -0.18256,-0.26458 -0.40569,-0.26458 -0.22313,0 -0.81845,-0.41275 -1.32292,-0.91723 -0.50447,-0.50447 -0.91722,-1.09978 -0.91722,-1.32291 0,-0.22313 -0.11906,-0.4057 -0.26458,-0.4057 -0.14552,0 -0.26459,-0.23812 -0.26459,-0.52916 0,-0.29105 -0.11906,-0.52917 -0.26458,-0.52917 -0.14552,0 -0.26458,-0.64359 -0.26458,-1.43021 0,-2.38385 1.50857,-4.65208 3.932,-5.91198 1.19385,-0.62066 4.0055,-0.85281 4.0055,-0.33073 0,0.14553 0.18118,0.26459 0.40262,0.26459 0.22145,0 1.05489,0.65225 1.85209,1.44945 0.7972,0.7972 1.44945,1.63064 1.44945,1.85209 0,0.22144 0.11907,0.40262 0.26459,0.40262 0.15679,0 0.26458,0.97014 0.26458,2.38125 0,1.41111 -0.10779,2.38125 -0.26458,2.38125 -0.14552,0 -0.26459,0.18401 -0.26459,0.4089 0,0.50004 -1.16642,1.70777 -1.64935,1.70777 -0.19277,0 -0.52212,0.23812 -0.7319,0.52917 -0.22397,0.31074 -0.68492,0.52916 -1.11674,0.52916 -0.40444,0 -0.73534,0.11907 -0.73534,0.26459 0,0.14552 -0.47625,0.26458 -1.05833,0.26458 -0.58209,0 -1.05834,-0.11906 -1.05834,-0.26458 z m -4.0292,-7.55699 c -0.0887,-0.0887 -0.30388,0.11684 -0.47818,0.45672 -0.30298,0.59078 -0.29589,0.59787 0.16125,0.16125 0.263,-0.25119 0.40561,-0.52928 0.31693,-0.61797 z m 0.58962,-0.94091 c 0,-0.14552 -0.11906,-0.191 -0.26458,-0.10106 -0.14552,0.0899 -0.26459,0.28258 -0.26459,0.4281 0,0.14552 0.11907,0.191 0.26459,0.10106 0.14552,-0.0899 0.26458,-0.28258 0.26458,-0.4281 z m 2.11667,-2.67151 c 0,-0.11775 -0.47606,0.23384 -1.0579,0.78131 -0.58185,0.54746 -1.0581,1.10885 -1.05834,1.24752 -2.3e-4,0.13868 0.47582,-0.21291 1.0579,-0.7813 0.58209,-0.56839 1.05834,-1.12978 1.05834,-1.24753 z m -77.721359,-8.55272 -0.859896,-0.90034 V 130.39789 95.721134 l 0.917222,-0.917223 0.917222,-0.917222 h 43.11319 43.113191 l 0.94875,0.921368 0.94876,0.921367 v 34.673916 34.67391 l -0.91722,0.91722 -0.91722,0.91722 -43.202055,-0.0182 -43.202049,-0.0182 z"
         id="path4205"
         inkscape:connector-curvature="0" />
      <path
         style="fill:#f291bd;stroke-width:0.26458335"
         d="m 31.796271,203.68877 c 0,-0.14552 -0.184005,-0.26458 -0.408901,-0.26458 -0.529291,0 -1.707765,-1.17848 -1.707765,-1.70777 0,-0.22489 -0.119063,-0.4089 -0.264584,-0.4089 -0.175536,0 -0.264583,-18.43264 -0.264583,-54.76875 0,-36.33611 0.08905,-54.768748 0.264583,-54.768748 0.145521,0 0.264584,-0.184005 0.264584,-0.408901 0,-0.529291 1.178474,-1.707765 1.707765,-1.707765 0.224896,0 0.408901,-0.119063 0.408901,-0.264584 0,-0.175375 15.522223,-0.264583 46.037502,-0.264583 30.515277,0 46.037497,0.08921 46.037497,0.264583 0,0.145521 0.18401,0.264584 0.4089,0.264584 0.52929,0 1.70777,1.178474 1.70777,1.707765 0,0.224896 0.11906,0.408901 0.26458,0.408901 0.17554,0 0.26459,18.432638 0.26459,54.768748 0,36.33611 -0.0891,54.76875 -0.26459,54.76875 -0.14552,0 -0.26458,0.18401 -0.26458,0.4089 0,0.52929 -1.17848,1.70777 -1.70777,1.70777 -0.22489,0 -0.4089,0.11906 -0.4089,0.26458 0,0.17538 -15.52222,0.26459 -46.037497,0.26459 -30.515279,0 -46.037502,-0.0892 -46.037502,-0.26459 z m 91.016669,-1.05833 c 0,-0.14552 0.184,-0.26458 0.4089,-0.26458 0.52929,0 1.70777,-1.17848 1.70777,-1.70777 0,-0.2249 0.11906,-0.4089 0.26458,-0.4089 0.17552,0 0.26458,-18.07986 0.26458,-53.71042 0,-35.63055 -0.0891,-53.710414 -0.26458,-53.710414 -0.14552,0 -0.26458,-0.184006 -0.26458,-0.408902 0,-0.529291 -1.17848,-1.707765 -1.70777,-1.707765 -0.2249,0 -0.4089,-0.119062 -0.4089,-0.264583 0,-0.175352 -15.16944,-0.264584 -44.979167,-0.264584 -29.809724,0 -44.979168,0.08923 -44.979168,0.264584 0,0.145521 -0.184006,0.264583 -0.408902,0.264583 -0.529291,0 -1.707765,1.178474 -1.707765,1.707765 0,0.224896 -0.119062,0.408902 -0.264583,0.408902 -0.17552,0 -0.264584,18.079864 -0.264584,53.710414 0,35.63056 0.08906,53.71042 0.264584,53.71042 0.145521,0 0.264583,0.184 0.264583,0.4089 0,0.52929 1.178474,1.70777 1.707765,1.70777 0.224896,0 0.408902,0.11906 0.408902,0.26458 0,0.17535 15.169444,0.26458 44.979168,0.26458 29.809727,0 44.979167,-0.0892 44.979167,-0.26458 z m -51.329168,-3.70417 c 0,-0.14552 -0.184004,-0.26458 -0.4089,-0.26458 -0.224896,0 -0.701146,-0.29225 -1.058333,-0.64943 -0.547357,-0.54736 -0.649433,-0.90273 -0.649433,-2.26099 0,-1.35825 0.102076,-1.71363 0.649433,-2.26098 l 0.64943,-0.64943 h 7.167804 7.167803 l 0.64943,0.64943 c 0.547357,0.54735 0.649433,0.90273 0.649433,2.26098 0,1.35826 -0.102076,1.71363 -0.649433,2.26099 -0.357187,0.35718 -0.82641,0.64943 -1.042717,0.64943 -0.216308,0 -0.466871,0.11906 -0.556808,0.26458 -0.101489,0.16422 -2.516288,0.26459 -6.365616,0.26459 -3.958339,0 -6.202093,-0.0957 -6.202093,-0.26459 z m 7.805209,-1.05285 c 0.337918,-0.14871 -1.000816,-0.25092 -3.704167,-0.2828 -2.328333,-0.0275 -4.32263,-0.0358 -4.431771,-0.0186 -0.10914,0.0172 -0.207838,-0.17703 -0.219326,-0.43169 -0.01312,-0.29106 -0.07155,-0.33689 -0.157306,-0.1234 -0.350853,0.87349 0.398746,1.06461 4.224425,1.07709 2.067439,0.007 3.997103,-0.0925 4.288145,-0.2206 z m -8.863542,-1.21172 c 0,-0.22687 -0.121005,-0.3377 -0.268899,-0.2463 -0.147894,0.0914 -0.2004,0.27702 -0.116676,0.41249 0.226809,0.36699 0.385575,0.29856 0.385575,-0.16619 z m 15.345834,-1.37595 c 0,-0.4724 -0.210127,-0.85919 -0.595313,-1.09581 l -0.595312,-0.36571 0.529166,0.59442 c 0.291042,0.32694 0.499401,0.64146 0.463021,0.69894 -0.120586,0.19054 -0.06847,0.89827 0.06615,0.89827 0.07276,0 0.132292,-0.32855 0.132292,-0.73011 z m 13.758333,2.05302 c 0,-0.14552 -0.357187,-0.26458 -0.79375,-0.26458 -0.436562,0 -0.79375,-0.11906 -0.79375,-0.26458 0,-0.14552 -0.182562,-0.26459 -0.405693,-0.26459 -0.223134,0 -0.818446,-0.41275 -1.322917,-0.91722 -0.504473,-0.50447 -0.917223,-1.09978 -0.917223,-1.32292 0,-0.22313 -0.119063,-0.40569 -0.264583,-0.40569 -0.145521,0 -0.264584,-0.23812 -0.264584,-0.52917 0,-0.29104 -0.119062,-0.52916 -0.264583,-0.52916 -0.145521,0 -0.264583,-0.64359 -0.264583,-1.43021 0,-2.37169 1.384226,-4.39861 4.037417,-5.91198 1.091266,-0.62246 3.900083,-0.86065 3.900083,-0.33073 0,0.14552 0.18118,0.26458 0.40263,0.26458 0.22144,0 1.05488,0.65226 1.85208,1.44946 0.7972,0.7972 1.44946,1.63064 1.44946,1.85208 0,0.22145 0.11906,0.40263 0.26458,0.40263 0.15679,0 0.26458,0.97014 0.26458,2.38125 0,1.41111 -0.10779,2.38125 -0.26458,2.38125 -0.14552,0 -0.26458,0.17318 -0.26458,0.38485 0,0.46861 -1.2206,1.73182 -1.67341,1.73182 -0.17955,0 -0.49807,0.23812 -0.70784,0.52916 -0.22056,0.30601 -0.68493,0.52917 -1.10113,0.52917 -0.39585,0 -0.79331,0.11906 -0.88325,0.26458 -0.0899,0.14552 -0.57321,0.26459 -1.07395,0.26459 -0.500732,0 -0.910424,-0.11907 -0.910424,-0.26459 z m 2.153574,-1.18092 c 0.2807,-0.114 0.38932,-0.38022 0.30778,-0.75439 -0.0984,-0.4514 -0.0667,-0.49386 0.14432,-0.19358 0.2328,0.33124 0.36584,0.33353 0.95824,0.0165 0.37836,-0.20248 0.62851,-0.52297 0.5559,-0.7122 -0.0726,-0.18922 0.0125,-0.3157 0.18919,-0.28107 0.17666,0.0346 0.28618,-0.14554 0.24338,-0.4004 -0.048,-0.28547 0.1806,-0.58112 0.59531,-0.77007 0.65143,-0.29681 0.91681,-0.75093 0.43884,-0.75093 -0.12886,0 -0.21816,-0.77822 -0.19843,-1.72937 0.0263,-1.26939 -0.0697,-1.80256 -0.36102,-2.00452 -0.29843,-0.20689 -0.31483,-0.30844 -0.0662,-0.40934 0.46618,-0.18916 0.41449,-0.70803 -0.0527,-0.52876 -0.26989,0.10357 -0.33463,0.02 -0.21865,-0.28221 0.12184,-0.3175 0.0529,-0.38642 -0.26458,-0.26458 -0.30223,0.11597 -0.38578,0.0512 -0.28221,-0.21865 0.0998,-0.26005 -0.0322,-0.3834 -0.41035,-0.3834 -0.30662,0 -0.55748,-0.11907 -0.55748,-0.26459 0,-0.14552 -0.23812,-0.26458 -0.52916,-0.26458 -0.29105,0 -0.52917,-0.11906 -0.52917,-0.26458 0,-0.14552 -0.26194,-0.26459 -0.58208,-0.26459 -0.45273,0 -0.51153,0.0706 -0.26459,0.3175 0.17463,0.17463 0.31568,0.50205 0.31345,0.72761 -0.003,0.26574 -0.0725,0.30655 -0.19844,0.11592 -0.26136,-0.39554 -1.897285,-0.62143 -1.831967,-0.25295 0.02755,0.1554 -0.23082,0.24309 -0.574149,0.19487 -0.396303,-0.0557 -0.559668,0.0168 -0.447405,0.19844 0.154382,0.2498 -0.357002,0.41564 -0.978882,0.31745 -0.10914,-0.0172 -0.168671,0.11749 -0.132291,0.29939 0.03638,0.1819 -0.05797,0.30921 -0.209659,0.28289 -0.151691,-0.0263 -0.29519,0.20952 -0.318883,0.52406 -0.02371,0.31454 -0.225153,0.70502 -0.447686,0.86775 -0.222536,0.16272 -0.329962,0.3705 -0.238728,0.46174 0.09124,0.0912 0.04608,0.31758 -0.100338,0.503 -0.351303,0.44487 -0.333018,1.34447 0.0324,1.5939 0.200126,0.1366 0.167045,0.28088 -0.106164,0.46302 -0.352777,0.23518 -0.352777,0.29398 0,0.52916 0.352777,0.23519 0.352777,0.29353 0,0.52512 -0.26539,0.17422 -0.287305,0.26187 -0.06615,0.26458 0.181901,0.002 0.33073,0.24218 0.33073,0.53322 0,0.35783 0.176389,0.52917 0.544782,0.52917 0.29963,0 0.471196,0.11906 0.381259,0.26458 -0.08994,0.14552 0.08866,0.26458 0.396875,0.26458 0.308219,0 0.486812,0.11907 0.396875,0.26459 -0.09374,0.15167 0.144243,0.26458 0.557649,0.26458 0.396645,0 0.648952,0.0722 0.560687,0.16049 -0.591868,0.59186 1.816715,0.99921 3.019615,0.51067 z m 3.13809,-2.52324 c 0,-0.14552 -0.11906,-0.26459 -0.26458,-0.26459 -0.14552,0 -0.26458,0.11907 -0.26458,0.26459 0,0.14552 0.11906,0.26458 0.26458,0.26458 0.14552,0 0.26458,-0.11906 0.26458,-0.26458 z m -60.523436,1.98548 c -0.229809,-0.26102 -0.330729,-1.46899 -0.330729,-3.95869 v -3.58304 h -3.319318 c -3.171437,0 -3.348252,-0.0289 -3.96875,-0.64944 -0.618058,-0.61805 -0.649432,-0.80431 -0.649432,-3.85535 0,-2.42569 0.09199,-3.29792 0.377976,-3.5839 0.290445,-0.29045 1.209524,-0.37798 3.96875,-0.37798 h 3.590774 v -3.59077 c 0,-2.75923 0.08753,-3.67831 0.377976,-3.96875 0.286076,-0.28608 1.159127,-0.37798 3.590774,-0.37798 3.318921,0 3.96875,0.19186 3.96875,1.17173 0,0.22867 0.119063,0.41577 0.264584,0.41577 0.161689,0 0.264583,1.23473 0.264583,3.175 v 3.175 h 3.326191 c 2.529919,0 3.416676,0.0905 3.704167,0.37798 0.286287,0.28628 0.377975,1.16132 0.377975,3.60723 0,3.19474 -0.0078,3.23595 -0.727604,3.85504 -0.679355,0.58427 -0.942538,0.62579 -3.96875,0.62609 l -3.241146,3.3e-4 v 3.59077 c 0,2.75923 -0.08753,3.6783 -0.377976,3.96875 -0.541196,0.5412 -6.750097,0.52591 -7.228795,-0.0178 z m 1.669222,-1.06786 c -0.662534,-0.50111 -1.062778,-0.50217 -0.62132,-0.002 0.187638,0.21274 0.519754,0.38755 0.738036,0.38846 0.299266,0.001 0.270561,-0.0939 -0.116716,-0.38681 z m -0.925136,-4.09321 c -0.02494,-1.80799 -0.157889,-3.42287 -0.295442,-3.58861 -0.326006,-0.39281 -6.756194,-0.50473 -6.992913,-0.12171 -0.111302,0.18009 0.994155,0.27132 3.287508,0.27132 h 3.455199 v 3.46163 c 0,2.43159 0.08793,3.43233 0.295497,3.36314 0.199792,-0.0666 0.28081,-1.16317 0.250151,-3.38577 z m -7.953982,-4.87859 c 0,-0.20969 -0.119062,-0.45484 -0.264583,-0.54478 -0.145521,-0.0899 -0.264583,0.0816 -0.264583,0.38126 0,0.29963 0.119062,0.54478 0.264583,0.54478 0.145521,0 0.264583,-0.17157 0.264583,-0.38126 z m 21.987188,-1.13012 c -0.254156,-0.43673 -0.275878,-0.43073 -0.283308,0.0782 -0.0089,0.61247 0.326819,1.09003 0.468188,0.66592 0.04971,-0.14914 -0.03348,-0.484 -0.18488,-0.74414 z M 37.03684,181.32448 c -0.08146,-0.0815 -0.229407,0.0654 -0.328766,0.32632 -0.143585,0.37708 -0.113194,0.40747 0.148112,0.14811 0.180821,-0.17947 0.262116,-0.39297 0.180654,-0.47443 z m 22.276099,0.38498 c 0,-0.28352 -0.642686,-1.03944 -0.883732,-1.03944 -0.1772,0 -0.07007,0.5932 0.179183,0.99219 0.252942,0.40489 0.704549,0.43517 0.704549,0.0472 z m -14.383181,-1.43631 c 0.08376,-0.21828 0.05908,-0.60524 -0.05485,-0.8599 -0.181714,-0.40616 -0.219938,-0.38992 -0.311293,0.13229 -0.05728,0.32743 -0.214924,0.59532 -0.350324,0.59532 -0.135399,0 -0.246181,0.11906 -0.246181,0.26458 0,0.41727 0.793616,0.30821 0.962653,-0.13229 z m 6.445681,-3.18703 c 0,-3.45235 -0.02384,-3.60774 -0.649432,-4.23333 -0.357188,-0.35719 -0.803672,-0.64761 -0.992188,-0.64538 -0.2445,0.003 -0.228986,0.0776 0.05412,0.26053 0.218282,0.14107 0.289361,0.25831 0.157954,0.26053 -0.131407,0.002 0.03631,0.24276 0.372709,0.53452 0.587112,0.5092 0.609206,0.66829 0.551168,3.96875 -0.0405,2.30314 0.03299,3.43828 0.222604,3.43828 0.1871,0 0.283066,-1.21502 0.283065,-3.5839 z m -5.909028,-3.95672 c 0,-0.21828 -0.09922,-0.39688 -0.220487,-0.39688 -0.264242,0 -0.290724,0.37074 -0.0441,0.61736 0.245248,0.24525 0.264584,0.22914 0.264584,-0.22048 z m 67.292359,12.56771 c 0,-0.14552 -0.35718,-0.26459 -0.79375,-0.26459 -0.43656,0 -0.79375,-0.11906 -0.79375,-0.26458 0,-0.14552 -0.18256,-0.26458 -0.40569,-0.26458 -0.22313,0 -0.81845,-0.41275 -1.32292,-0.91723 -0.50447,-0.50447 -0.91722,-1.09978 -0.91722,-1.32291 0,-0.22313 -0.11906,-0.4057 -0.26458,-0.4057 -0.14552,0 -0.26459,-0.23812 -0.26459,-0.52916 0,-0.29105 -0.11906,-0.52917 -0.26458,-0.52917 -0.50929,0 -0.28586,-2.71728 0.33073,-4.02232 0.32742,-0.693 0.69229,-1.2621 0.81083,-1.26467 0.11854,-0.003 0.49105,-0.3321 0.82781,-0.73228 0.98757,-1.17357 2.64649,-1.91823 4.27334,-1.91823 0.78662,0 1.43021,0.11906 1.43021,0.26459 0,0.14552 0.18118,0.26458 0.40262,0.26458 0.22145,0 1.05489,0.65225 1.85209,1.44945 0.7972,0.79721 1.44945,1.63064 1.44945,1.85209 0,0.22144 0.11907,0.40262 0.26459,0.40262 0.15679,0 0.26458,0.97014 0.26458,2.38125 0,1.41111 -0.10779,2.38125 -0.26458,2.38125 -0.14552,0 -0.26459,0.17319 -0.26459,0.38485 0,0.46862 -1.22059,1.73182 -1.67341,1.73182 -0.17954,0 -0.49806,0.23812 -0.70784,0.52917 -0.22055,0.306 -0.68492,0.52916 -1.10112,0.52916 -0.39585,0 -0.79331,0.11907 -0.88325,0.26459 -0.0899,0.14552 -0.57322,0.26458 -1.07395,0.26458 -0.50073,0 -0.91043,-0.11906 -0.91043,-0.26458 z m -4.0292,-7.55699 c -0.0887,-0.0887 -0.30387,0.11684 -0.47818,0.45672 -0.30298,0.59078 -0.29589,0.59787 0.16125,0.16125 0.263,-0.25119 0.40561,-0.52928 0.31693,-0.61797 z m 0.58962,-0.94091 c 0,-0.14552 -0.11906,-0.191 -0.26458,-0.10106 -0.14552,0.0899 -0.26459,0.28258 -0.26459,0.4281 0,0.14552 0.11907,0.191 0.26459,0.10106 0.14552,-0.0899 0.26458,-0.28258 0.26458,-0.4281 z m 2.11667,-2.67151 c 0,-0.11775 -0.47606,0.23384 -1.0579,0.78131 -0.58184,0.54746 -1.05809,1.10885 -1.05834,1.24752 -2.3e-4,0.13868 0.47582,-0.21291 1.0579,-0.7813 0.58209,-0.56839 1.05834,-1.12978 1.05834,-1.24753 z m -76.993755,-8.14518 c 0,-0.14552 0.126089,-0.26458 0.280198,-0.26458 0.154109,0 0.206614,0.11906 0.116677,0.26458 -0.08994,0.14553 -0.216026,0.26459 -0.280198,0.26459 -0.06417,0 -0.116677,-0.11906 -0.116677,-0.26459 z m 1.008724,-0.18074 c 0.190996,-0.0764 0.419199,-0.067 0.507118,0.0209 0.08792,0.0879 -0.06835,0.15046 -0.347266,0.13897 -0.308224,-0.0127 -0.370919,-0.0754 -0.159852,-0.15985 z m -2.265495,-0.74419 c -0.260992,-0.29644 -0.330729,-7.69048 -0.330729,-35.06613 0,-32.049743 0.03363,-34.724113 0.441759,-35.132245 0.321258,-0.321257 0.471617,-0.352188 0.551216,-0.113393 0.0602,0.180602 0.285154,0.328367 0.499897,0.328367 0.230728,0 0.312184,0.126622 0.199131,0.309547 -0.127882,0.206917 -0.04815,0.254609 0.240495,0.143847 0.502606,-0.192869 0.87965,0.229038 0.384255,0.429975 -0.182808,0.07415 18.95775,0.142444 42.534573,0.151768 l 42.866959,0.01695 0.39242,-0.592191 c 0.21583,-0.325704 0.45584,-0.747661 0.53335,-0.937681 0.1072,-0.262791 0.28137,-0.223695 0.72761,0.163326 l 0.58667,0.508818 v 34.714432 c 0,36.55706 0.0332,35.47038 -1.08353,35.47038 -0.18017,0 -0.26083,-0.0668 -0.17925,-0.14833 0.0816,-0.0816 -0.14069,-0.43735 -0.49394,-0.79059 l -0.64226,-0.64226 -42.56422,-0.005 -42.564221,-0.005 -0.669209,0.79531 c -0.746442,0.88709 -0.951344,0.9443 -1.430976,0.39953 z m 2.530078,-0.31414 c 0.190996,-0.0764 0.419199,-0.067 0.507118,0.0209 0.08792,0.0879 -0.06835,0.15045 -0.347265,0.13897 -0.308225,-0.0127 -0.37092,-0.0754 -0.159853,-0.15985 z M 56.621819,93.952852 c 11.835041,-0.03811 31.123166,-0.0381 42.862501,1e-5 11.73934,0.03811 2.05612,0.06929 -21.518256,0.06928 -23.574375,-5e-6 -33.179286,-0.03119 -21.344245,-0.06929 z"
         id="path4203"
         inkscape:connector-curvature="0" />
      <path
         style="fill:#a3809c;stroke-width:0.26458335"
         d="m 31.796271,203.68877 c 0,-0.14552 -0.184005,-0.26458 -0.408901,-0.26458 -0.529291,0 -1.707765,-1.17848 -1.707765,-1.70777 0,-0.22489 -0.119063,-0.4089 -0.264584,-0.4089 -0.175536,0 -0.264583,-18.43264 -0.264583,-54.76875 0,-36.33611 0.08905,-54.768748 0.264583,-54.768748 0.145521,0 0.264584,-0.184005 0.264584,-0.408901 0,-0.529291 1.178474,-1.707765 1.707765,-1.707765 0.224896,0 0.408901,-0.119063 0.408901,-0.264584 0,-0.175375 15.522223,-0.264583 46.037502,-0.264583 30.515277,0 46.037497,0.08921 46.037497,0.264583 0,0.145521 0.18401,0.264584 0.4089,0.264584 0.52929,0 1.70777,1.178474 1.70777,1.707765 0,0.224896 0.11906,0.408901 0.26458,0.408901 0.17554,0 0.26459,18.432638 0.26459,54.768748 0,36.33611 -0.0891,54.76875 -0.26459,54.76875 -0.14552,0 -0.26458,0.18401 -0.26458,0.4089 0,0.52929 -1.17848,1.70777 -1.70777,1.70777 -0.22489,0 -0.4089,0.11906 -0.4089,0.26458 0,0.17538 -15.52222,0.26459 -46.037497,0.26459 -30.515279,0 -46.037502,-0.0892 -46.037502,-0.26459 z m 91.016669,-1.05833 c 0,-0.14552 0.184,-0.26458 0.4089,-0.26458 0.52929,0 1.70777,-1.17848 1.70777,-1.70777 0,-0.2249 0.11906,-0.4089 0.26458,-0.4089 0.17552,0 0.26458,-18.07986 0.26458,-53.71042 0,-35.63055 -0.0891,-53.710414 -0.26458,-53.710414 -0.14552,0 -0.26458,-0.184006 -0.26458,-0.408902 0,-0.529291 -1.17848,-1.707765 -1.70777,-1.707765 -0.2249,0 -0.4089,-0.119062 -0.4089,-0.264583 0,-0.175352 -15.16944,-0.264584 -44.979167,-0.264584 -29.809724,0 -44.979168,0.08923 -44.979168,0.264584 0,0.145521 -0.184006,0.264583 -0.408902,0.264583 -0.529291,0 -1.707765,1.178474 -1.707765,1.707765 0,0.224896 -0.119062,0.408902 -0.264583,0.408902 -0.17552,0 -0.264584,18.079864 -0.264584,53.710414 0,35.63056 0.08906,53.71042 0.264584,53.71042 0.145521,0 0.264583,0.184 0.264583,0.4089 0,0.52929 1.178474,1.70777 1.707765,1.70777 0.224896,0 0.408902,0.11906 0.408902,0.26458 0,0.17535 15.169444,0.26458 44.979168,0.26458 29.809727,0 44.979167,-0.0892 44.979167,-0.26458 z m -51.329168,-3.70417 c 0,-0.14552 -0.184004,-0.26458 -0.4089,-0.26458 -0.224896,0 -0.701146,-0.29225 -1.058333,-0.64943 -0.547357,-0.54736 -0.649433,-0.90273 -0.649433,-2.26099 0,-1.35825 0.102076,-1.71363 0.649433,-2.26098 l 0.64943,-0.64943 h 7.167804 7.167803 l 0.64943,0.64943 c 0.547357,0.54735 0.649433,0.90273 0.649433,2.26098 0,1.35826 -0.102076,1.71363 -0.649433,2.26099 -0.357187,0.35718 -0.82641,0.64943 -1.042717,0.64943 -0.216308,0 -0.466871,0.11906 -0.556808,0.26458 -0.101489,0.16422 -2.516288,0.26459 -6.365616,0.26459 -3.958339,0 -6.202093,-0.0957 -6.202093,-0.26459 z m 8.466667,-1.05833 c 0,-0.16514 -1.559766,-0.26458 -4.150135,-0.26458 -3.896895,0 -4.187502,-0.0351 -4.7625,-0.57529 -0.697458,-0.65523 -0.738061,-0.90495 -0.298548,-1.83627 0.554993,-1.17602 1.231141,-1.29261 7.496427,-1.29261 h 5.852662 l 0.576879,0.66347 c 0.317286,0.36491 0.576882,0.84116 0.576882,1.05834 0,0.21717 0.119063,0.39486 0.264583,0.39486 0.516298,0 0.254746,-1.35681 -0.384849,-1.9964 l -0.649431,-0.64944 h -6.353122 -6.35312 l -0.934947,0.85807 c -1.13651,1.04305 -1.263163,2.24988 -0.339635,3.23625 0.58139,0.62095 0.698947,0.6362 5.027083,0.652 2.788915,0.0102 4.431771,-0.0819 4.431771,-0.2484 z m 19.579167,-0.52917 c 0,-0.14552 -0.219831,-0.26458 -0.488516,-0.26458 -1.262404,0 -3.341798,-1.73739 -4.037502,-3.37344 -0.201112,-0.47294 -0.455655,-0.85989 -0.565653,-0.85989 -0.109997,0 -0.199995,-0.71438 -0.199995,-1.5875 0,-0.87313 0.09,-1.5875 0.199995,-1.5875 0.109998,0 0.358103,-0.35719 0.551345,-0.79375 0.33779,-0.76313 0.83616,-1.07852 0.83616,-0.52917 0,0.14552 -0.119063,0.26458 -0.264584,0.26458 -0.145521,0 -0.264583,0.23813 -0.264583,0.52917 0,0.29104 -0.119063,0.52917 -0.264583,0.52917 -0.145521,0 -0.264584,0.35718 -0.264584,0.79375 0,0.43656 0.119063,0.79375 0.264584,0.79375 0.14552,0 0.264583,0.47625 0.264583,1.05833 0,0.58208 0.119062,1.05833 0.264583,1.05833 0.145521,0 0.264584,0.18401 0.264584,0.4089 0,0.2249 0.292245,0.70115 0.649433,1.05834 0.357187,0.35718 0.833437,0.64943 1.058333,0.64943 0.224896,0 0.4089,0.11906 0.4089,0.26458 0,0.14552 0.238125,0.26459 0.529167,0.26459 0.291042,0 0.529167,0.11906 0.529167,0.26458 0,0.14552 0.569028,0.26458 1.26451,0.26458 0.96098,0 1.35605,-0.12701 1.64591,-0.52916 0.20977,-0.29104 0.53768,-0.52917 0.72868,-0.52917 0.48224,0 2.18173,-1.74499 2.18173,-2.24014 0,-0.22313 0.11907,-0.40569 0.26459,-0.40569 0.15119,0 0.26458,-0.79375 0.26458,-1.85209 0,-1.05833 -0.11339,-1.85208 -0.26458,-1.85208 -0.14552,0 -0.26459,-0.30307 -0.26459,-0.67348 0,-0.37042 -0.26886,-0.93597 -0.59748,-1.25677 -0.81949,-0.80003 -2.7567,-1.77392 -3.52856,-1.77392 -0.35005,0 -0.63646,-0.11906 -0.63646,-0.26458 0,-0.14552 0.47625,-0.26458 1.05834,-0.26458 0.58208,0 1.05833,0.11906 1.05833,0.26458 0,0.14552 0.16261,0.26458 0.36135,0.26458 0.5134,0 3.34282,2.78001 3.34282,3.28444 0,0.23085 0.11906,0.41973 0.26458,0.41973 0.15679,0 0.26458,0.97014 0.26458,2.38125 0,1.41111 -0.10779,2.38125 -0.26458,2.38125 -0.14552,0 -0.26458,0.15632 -0.26458,0.34737 0,0.36075 -1.33682,1.7693 -1.67919,1.7693 -0.10726,0 -0.45062,0.23812 -0.76302,0.52916 -0.31239,0.29105 -0.83617,0.52917 -1.16394,0.52917 -0.32778,0 -0.66954,0.11906 -0.75948,0.26458 -0.0899,0.14552 -0.57321,0.26459 -1.07395,0.26459 -0.500732,0 -0.910424,-0.11907 -0.910424,-0.26459 z m -55.09948,-1.69123 c -0.401162,-0.30452 -0.463021,-0.83362 -0.463021,-3.96033 v -3.60885 h -3.342654 c -3.318439,0 -3.347186,-0.005 -3.968426,-0.72761 -0.580113,-0.67451 -0.625797,-0.95146 -0.626097,-3.79545 -4.27e-4,-4.05674 -0.128144,-3.94361 4.452281,-3.94361 h 3.484896 v -3.53087 c 0,-4.54568 -0.128572,-4.40663 4.074628,-4.40663 3.208037,0 3.862872,0.19863 3.862872,1.17173 0,0.22867 0.119063,0.41577 0.264584,0.41577 0.161689,0 0.264583,1.23473 0.264583,3.175 v 3.175 h 3.34427 c 2.87473,0 3.393617,0.065 3.69575,0.46302 0.244208,0.3217 0.354052,1.40086 0.3599,3.5358 0.0081,2.97243 -0.01437,3.09555 -0.689124,3.77031 -0.678436,0.67844 -0.787116,0.69754 -3.968751,0.69754 h -3.271212 v 3.55687 c 0,4.48018 0.0898,4.38428 -4.093767,4.37221 -2.005901,-0.006 -3.062387,-0.11825 -3.380712,-0.3599 z m 4.299479,-0.9546 c 0,-0.14552 -0.557873,-0.26458 -1.239718,-0.26458 -0.908701,0 -1.403226,-0.15361 -1.852083,-0.57529 -0.578365,-0.54335 -0.612366,-0.7637 -0.612366,-3.96875 v -3.39346 h -3.590774 c -2.759226,0 -3.678305,-0.0875 -3.96875,-0.37798 -0.256766,-0.25677 -0.377976,-0.98182 -0.377976,-2.26099 0,-1.64646 0.08158,-1.96459 0.649432,-2.53243 0.620498,-0.6205 0.797313,-0.64944 3.96875,-0.64944 h 3.319318 v -3.31931 c 0,-3.17144 0.02893,-3.34825 0.649432,-3.96875 0.547356,-0.54736 0.902731,-0.64944 2.260985,-0.64944 1.358254,0 1.713629,0.10208 2.260985,0.64944 0.620499,0.6205 0.649432,0.79731 0.649432,3.96875 v 3.31931 h 3.39187 c 3.290981,0 3.409028,0.0197 3.968748,0.66347 0.465421,0.53528 0.576882,0.99537 0.576882,2.38125 0,0.9688 0.115364,1.71778 0.264583,1.71778 0.153012,0 0.264584,-0.84185 0.264584,-1.9964 0,-1.76686 -0.07467,-2.07107 -0.649433,-2.64583 -0.620499,-0.6205 -0.797312,-0.64943 -3.968749,-0.64943 h -3.319318 v -3.31932 c 0,-3.17144 -0.02893,-3.34825 -0.649432,-3.96875 -0.582498,-0.5825 -0.870067,-0.64943 -2.790152,-0.64943 -1.920085,0 -2.207654,0.0669 -2.790152,0.64943 -0.620498,0.6205 -0.649431,0.79731 -0.649431,3.96875 v 3.31932 h -3.342654 c -3.318439,0 -3.347186,0.005 -3.968427,0.7276 -0.542154,0.63038 -0.625816,1.00321 -0.626096,2.79015 -2.91e-4,1.83732 0.07059,2.13347 0.649108,2.71198 0.620499,0.6205 0.797314,0.64943 3.96875,0.64943 h 3.319319 v 3.31675 c 0,3.07481 0.04342,3.36313 0.595312,3.95257 0.490173,0.52353 0.864003,0.63868 2.116667,0.652 0.848636,0.009 1.521354,-0.10081 1.521354,-0.2484 z m -0.529167,-8.97366 c 0,-0.13332 -0.33704,-0.39159 -0.748979,-0.57393 -0.411939,-0.18235 -0.898169,-0.66858 -1.08051,-1.08051 -0.403465,-0.9115 -0.816344,-0.97401 -0.816344,-0.1236 0,0.80646 1.213991,2.02045 2.020455,2.02045 0.343958,0 0.625378,-0.10908 0.625378,-0.24241 z m 64.558332,-0.0222 c 0,-0.14552 -0.21983,-0.26459 -0.48851,-0.26459 -1.97043,0 -4.80315,-3.44461 -4.80315,-5.84067 0,-1.0308 0.95939,-3.15516 1.42491,-3.15516 0.15423,0 0.13335,0.13507 -0.0491,0.3175 -0.17462,0.17463 -0.3175,0.53181 -0.3175,0.79375 0,0.26194 -0.11906,0.47625 -0.26458,0.47625 -0.14552,0 -0.26458,0.47625 -0.26458,1.05833 0,0.58209 0.11906,1.05834 0.26458,1.05834 0.14552,0 0.26458,-0.35719 0.26458,-0.79375 0,-0.43657 0.11907,-0.79375 0.26459,-0.79375 0.14552,0 0.26458,-0.23813 0.26458,-0.52917 0,-0.29104 0.11906,-0.52917 0.26458,-0.52917 0.14553,0 0.26459,-0.18256 0.26459,-0.40569 0,-0.22313 0.41275,-0.81845 0.91722,-1.32291 0.50447,-0.50448 1.09978,-0.91723 1.32292,-0.91723 0.22313,0 0.40569,-0.11906 0.40569,-0.26458 0,-0.14552 0.35719,-0.26459 0.79375,-0.26459 0.43656,0 0.79375,-0.11906 0.79375,-0.26458 0,-0.14552 -0.11907,-0.26458 -0.26458,-0.26458 -0.14552,0 -0.26459,-0.11906 -0.26459,-0.26459 0,-0.45106 1.52375,-0.29135 2.51107,0.2632 1.20508,0.67685 3.30976,2.77642 3.30976,3.30172 0,0.22211 0.11907,0.40383 0.26459,0.40383 0.15679,0 0.26458,0.97014 0.26458,2.38125 0,1.41111 -0.10779,2.38125 -0.26458,2.38125 -0.14552,0 -0.26459,0.15632 -0.26459,0.34738 0,0.36074 -1.33681,1.76929 -1.67918,1.76929 -0.10726,0 -0.45062,0.23812 -0.76302,0.52917 -0.3124,0.29104 -0.83617,0.52916 -1.16395,0.52916 -0.32777,0 -0.66953,0.11907 -0.75947,0.26459 -0.0899,0.14552 -0.57322,0.26458 -1.07395,0.26458 -0.50073,0 -0.91042,-0.11906 -0.91042,-0.26458 z M 33.185334,165.45759 c -0.260992,-0.29644 -0.330729,-7.69048 -0.330729,-35.06613 0,-30.651755 0.04672,-34.737201 0.401261,-35.091747 0.358627,-0.358626 0.482356,-0.314449 1.164487,0.415774 l 0.763225,0.817036 h 42.627787 42.627785 l 0.75626,-0.846406 c 0.69858,-0.781849 0.78911,-0.813561 1.1869,-0.415774 0.39341,0.393409 0.43063,3.429892 0.43063,35.128847 0,30.65866 -0.0467,34.74493 -0.40126,35.09948 -0.35863,0.35862 -0.48236,0.31445 -1.16449,-0.41578 l -0.76322,-0.81703 H 77.833773 35.183578 l -0.741473,0.79375 c -0.847705,0.90747 -0.81681,0.89769 -1.256771,0.39798 z"
         id="path4201"
         inkscape:connector-curvature="0" />
      <path
         style="fill:#a8769a;stroke-width:0.26458335"
         d="m 31.796271,203.68877 c 0,-0.14552 -0.184005,-0.26458 -0.408901,-0.26458 -0.529291,0 -1.707765,-1.17848 -1.707765,-1.70777 0,-0.22489 -0.119063,-0.4089 -0.264584,-0.4089 -0.175536,0 -0.264583,-18.43264 -0.264583,-54.76875 0,-36.33611 0.08905,-54.768748 0.264583,-54.768748 0.145521,0 0.264584,-0.184005 0.264584,-0.408901 0,-0.529291 1.178474,-1.707765 1.707765,-1.707765 0.224896,0 0.408901,-0.119063 0.408901,-0.264584 0,-0.175375 15.522223,-0.264583 46.037502,-0.264583 30.515277,0 46.037497,0.08921 46.037497,0.264583 0,0.145521 0.18401,0.264584 0.4089,0.264584 0.52929,0 1.70777,1.178474 1.70777,1.707765 0,0.224896 0.11906,0.408901 0.26458,0.408901 0.17554,0 0.26459,18.432638 0.26459,54.768748 0,36.33611 -0.0891,54.76875 -0.26459,54.76875 -0.14552,0 -0.26458,0.18401 -0.26458,0.4089 0,0.52929 -1.17848,1.70777 -1.70777,1.70777 -0.22489,0 -0.4089,0.11906 -0.4089,0.26458 0,0.17538 -15.52222,0.26459 -46.037497,0.26459 -30.515279,0 -46.037502,-0.0892 -46.037502,-0.26459 z m 91.016669,-1.05833 c 0,-0.14552 0.184,-0.26458 0.4089,-0.26458 0.52929,0 1.70777,-1.17848 1.70777,-1.70777 0,-0.2249 0.11906,-0.4089 0.26458,-0.4089 0.17552,0 0.26458,-18.07986 0.26458,-53.71042 0,-35.63055 -0.0891,-53.710414 -0.26458,-53.710414 -0.14552,0 -0.26458,-0.184006 -0.26458,-0.408902 0,-0.529291 -1.17848,-1.707765 -1.70777,-1.707765 -0.2249,0 -0.4089,-0.119062 -0.4089,-0.264583 0,-0.175352 -15.16944,-0.264584 -44.979167,-0.264584 -29.809724,0 -44.979168,0.08923 -44.979168,0.264584 0,0.145521 -0.184006,0.264583 -0.408902,0.264583 -0.529291,0 -1.707765,1.178474 -1.707765,1.707765 0,0.224896 -0.119062,0.408902 -0.264583,0.408902 -0.17552,0 -0.264584,18.079864 -0.264584,53.710414 0,35.63056 0.08906,53.71042 0.264584,53.71042 0.145521,0 0.264583,0.184 0.264583,0.4089 0,0.52929 1.178474,1.70777 1.707765,1.70777 0.224896,0 0.408902,0.11906 0.408902,0.26458 0,0.17535 15.169444,0.26458 44.979168,0.26458 29.809727,0 44.979167,-0.0892 44.979167,-0.26458 z M 71.601679,198.903 c -0.08202,-0.13272 -0.326115,-0.24131 -0.542423,-0.24131 -0.216307,0 -0.68553,-0.29225 -1.042717,-0.64943 -0.547357,-0.54736 -0.649433,-0.90273 -0.649433,-2.26099 0,-1.35825 0.102076,-1.71363 0.649433,-2.26098 l 0.64943,-0.64943 h 7.167804 7.167803 l 0.64943,0.64943 c 0.547357,0.54735 0.649433,0.90273 0.649433,2.26098 0,1.37571 -0.09899,1.71055 -0.676399,2.28796 l -0.676399,0.6764 -5.872039,0.11491 c -3.22962,0.0632 -6.198907,0.15966 -6.598412,0.21434 -0.399505,0.0547 -0.793485,-0.009 -0.875511,-0.14188 z m 8.34876,-1.03506 c 0,-0.15301 0.841857,-0.26458 1.996401,-0.26458 1.778497,0 2.068843,-0.0724 2.660078,-0.66368 0.365022,-0.36502 0.59155,-0.78038 0.503399,-0.92301 -0.09116,-0.1475 0.0168,-0.19139 0.250338,-0.10177 0.681562,0.26154 0.503293,-1.15334 -0.238815,-1.89544 l -0.649431,-0.64944 h -6.520458 -6.520455 l -0.767612,0.82174 c -0.965591,1.03366 -1.03496,2.35122 -0.172299,3.27258 0.58139,0.62095 0.698947,0.6362 5.027083,0.652 2.788915,0.0102 4.431771,-0.0819 4.431771,-0.2484 z m -8.995833,-0.92604 c -0.341776,-0.3638 -0.52501,-0.66146 -0.407189,-0.66146 0.117819,0 0.490075,0.29766 0.827236,0.66146 0.337161,0.3638 0.520396,0.66146 0.407191,0.66146 -0.113207,0 -0.485463,-0.29766 -0.827238,-0.66146 z m 2.844271,0.46556 c 0.909505,-0.0517 2.397786,-0.0517 3.307291,0 0.909506,0.0517 0.165365,0.0939 -1.653646,0.0939 -1.81901,0 -2.563151,-0.0423 -1.653645,-0.0939 z m 10.351145,-3.17754 c -0.329107,-0.41965 -0.319749,-0.429 0.0999,-0.0999 0.44073,0.34565 0.580888,0.56292 0.363125,0.56292 -0.05494,0 -0.2633,-0.20836 -0.463021,-0.46302 z m 15.478025,3.05408 c -0.07132,-0.1154 -0.420301,-0.20981 -0.775515,-0.20981 -0.355213,0 -0.645842,-0.11906 -0.645842,-0.26458 0,-0.14552 -0.214768,-0.26459 -0.477264,-0.26459 -0.65438,0 -2.072275,-1.51971 -2.84861,-3.05317 -0.617437,-1.21959 -0.919144,-3.82599 -0.442881,-3.82599 0.109998,0 0.358103,-0.35719 0.551345,-0.79375 0.33779,-0.76313 0.83616,-1.07852 0.83616,-0.52917 0,0.14552 -0.119063,0.26458 -0.264584,0.26458 -0.145521,0 -0.264583,0.23813 -0.264583,0.52917 0,0.29104 -0.119063,0.52917 -0.264583,0.52917 -0.145521,0 -0.264584,0.35718 -0.264584,0.79375 0,0.43656 0.119063,0.79375 0.264584,0.79375 0.14552,0 0.264583,0.47625 0.264583,1.05833 0,0.58208 0.119062,1.05833 0.264583,1.05833 0.145521,0 0.264584,0.18401 0.264584,0.4089 0,0.2249 0.292245,0.70115 0.649433,1.05834 0.357187,0.35718 0.833437,0.64943 1.058333,0.64943 0.224896,0 0.4089,0.11906 0.4089,0.26458 0,0.14552 0.238125,0.26459 0.529167,0.26459 0.291042,0 0.529167,0.11906 0.529167,0.26458 0,0.14552 0.569028,0.26458 1.26451,0.26458 0.96098,0 1.35605,-0.12701 1.64591,-0.52916 0.20977,-0.29104 0.53768,-0.52917 0.72868,-0.52917 0.48224,0 2.18173,-1.74499 2.18173,-2.24014 0,-0.22313 0.11907,-0.40569 0.26459,-0.40569 0.15119,0 0.26458,-0.79375 0.26458,-1.85209 0,-1.05833 -0.11339,-1.85208 -0.26458,-1.85208 -0.14552,0 -0.26459,-0.30307 -0.26459,-0.67348 0,-0.37042 -0.26886,-0.93597 -0.59748,-1.25677 -0.81949,-0.80003 -2.7567,-1.77392 -3.52856,-1.77392 -0.35005,0 -0.63646,-0.11906 -0.63646,-0.26458 0,-0.14552 0.47625,-0.26458 1.05834,-0.26458 0.58208,0 1.05833,0.11906 1.05833,0.26458 0,0.14552 0.16261,0.26458 0.36135,0.26458 0.5134,0 3.34282,2.78001 3.34282,3.28444 0,0.23085 0.11906,0.41973 0.26458,0.41973 0.15391,0 0.26458,0.86839 0.26458,2.07602 0,2.30453 -0.36066,3.30834 -1.48811,4.14169 -0.39375,0.29104 -0.86634,0.67799 -1.05021,0.85989 -0.18386,0.18191 -0.46186,0.33073 -0.61778,0.33073 -0.15591,0 -0.28348,0.11907 -0.28348,0.26459 0,0.14552 -0.35719,0.26458 -0.79375,0.26458 -0.43656,0 -0.79375,0.0896 -0.79375,0.19901 0,0.26712 -1.589183,0.2769 -1.753643,0.0108 z m -55.22306,-1.752 c -0.3608,-0.39868 -0.437882,-1.09731 -0.437882,-3.96875 v -3.48489 h -3.271212 c -3.181636,0 -3.290313,-0.0191 -3.96875,-0.69754 -0.67377,-0.67377 -0.697538,-0.80249 -0.697538,-3.77766 0,-4.0776 -0.09712,-3.99147 4.500941,-3.99147 h 3.436559 v -3.51307 c 0,-4.52992 -0.0983,-4.42443 4.122965,-4.42443 3.157449,0 3.814535,0.20184 3.814535,1.17173 0,0.22867 0.119063,0.41577 0.264584,0.41577 0.161689,0 0.264583,1.23473 0.264583,3.175 v 3.175 h 3.175 c 4.212984,0 4.233333,0.0185 4.233333,3.84005 0,4.35212 -0.258871,4.60668 -4.696354,4.6182 l -3.241146,0.008 v 3.39346 c 0,3.20505 -0.034,3.4254 -0.612365,3.96875 -0.552324,0.51888 -0.89852,0.57529 -3.530868,0.57529 -2.491379,0 -2.982587,-0.0708 -3.356385,-0.48386 z m 4.324618,-0.83906 c 0,-0.14552 0.184006,-0.26458 0.408902,-0.26458 0.224896,0 0.679816,-0.27092 1.010933,-0.60204 0.498555,-0.49855 0.604353,-0.89647 0.615533,-2.3151 0.0074,-0.94219 0.02875,-2.45721 0.0474,-3.36672 l 0.0339,-1.65364 h 3.381174 c 3.077652,0 3.415411,-0.0475 3.762576,-0.52917 0.209772,-0.29104 0.593243,-0.52917 0.852159,-0.52917 0.409695,0 0.470758,-0.25895 0.470758,-1.9964 0,-1.76686 -0.07467,-2.07107 -0.649433,-2.64583 -0.620499,-0.6205 -0.797312,-0.64943 -3.968749,-0.64943 H 51.37544 v -3.31932 c 0,-3.17144 -0.02893,-3.34825 -0.649432,-3.96875 -0.582498,-0.5825 -0.870067,-0.64943 -2.790152,-0.64943 -1.920085,0 -2.207654,0.0669 -2.790152,0.64943 -0.620498,0.6205 -0.649431,0.79731 -0.649431,3.96875 v 3.31932 h -3.319319 c -3.171436,0 -3.348251,0.0289 -3.96875,0.64943 -0.582497,0.5825 -0.649431,0.87007 -0.649431,2.79015 0,1.92008 0.06693,2.20765 0.649431,2.79015 0.620499,0.6205 0.797314,0.64943 3.96875,0.64943 h 3.319319 v 3.31675 c 0,3.07481 0.04342,3.36313 0.595312,3.95257 0.490173,0.52353 0.864003,0.63868 2.116667,0.652 0.848636,0.009 1.521354,-0.10081 1.521353,-0.2484 z m -3.44489,-1.19702 c -0.184076,-0.2218 -0.283444,-0.45451 -0.220818,-0.51713 0.06263,-0.0626 0.259194,0.11884 0.43682,0.40327 0.384126,0.61508 0.256018,0.68261 -0.216002,0.11386 z m 1.129786,-2.48873 c -0.472943,-0.99214 -0.859896,-1.92976 -0.859896,-2.08362 0,-0.17105 0.976823,-0.31249 2.514201,-0.36404 1.382811,-0.0464 2.484139,-0.0105 2.447396,0.0797 -0.03674,0.0902 -0.483524,1.06839 -0.992847,2.17374 -0.795211,1.7258 -1.019492,2.00892 -1.5875,2.00392 -0.554853,-0.005 -0.800045,-0.29654 -1.521354,-1.8097 z m -8.066707,-4.70346 c 0.329118,-0.0633 0.805368,-0.0609 1.058333,0.005 0.252965,0.0662 -0.01631,0.11801 -0.598397,0.11507 -0.582083,-0.003 -0.789055,-0.0571 -0.459936,-0.12041 z m 2.708894,-0.004 c 1.231958,-0.22101 1.08445,-0.51622 -0.643735,-1.28832 -1.457838,-0.65132 -1.723037,-0.8718 -1.721655,-1.43137 0.0014,-0.55273 0.265873,-0.78085 1.609179,-1.3878 1.169548,-0.52844 1.565918,-0.83482 1.454766,-1.12448 -0.119895,-0.31244 0.059,-0.39364 0.831103,-0.37725 0.541136,0.0115 0.835056,0.0809 0.653155,0.15434 -0.233187,0.0941 -0.330729,0.90258 -0.330729,2.74127 v 2.60781 l 0.992187,0.10379 c 0.545703,0.0571 -0.01984,0.10758 -1.256771,0.11223 -1.236927,0.005 -1.951302,-0.045 -1.5875,-0.11022 z m 12.035775,-0.29711 c -0.224351,-0.22435 -0.140297,-4.80383 0.08817,-4.80383 0.119733,0 0.955067,0.35719 1.856298,0.79375 0.901233,0.43656 1.755768,0.79375 1.898971,0.79375 0.143204,0 0.252924,0.32742 0.243827,0.7276 -0.01452,0.63892 -0.256749,0.84284 -1.987143,1.67293 -1.08383,0.51993 -2.028886,0.88704 -2.100123,0.8158 z m -4.892025,-0.2475 c 0,-0.1134 0.238125,-0.37781 0.529167,-0.58758 0.763153,-0.55005 0.681833,-1.69359 -0.167973,-2.36205 -0.881001,-0.69299 -1.726373,-0.70054 -2.151874,-0.0192 -0.181759,0.29105 -0.448524,0.52917 -0.592812,0.52917 -0.452425,0 -0.286664,-0.63242 0.364079,-1.38906 0.842687,-0.97982 2.692329,-1.03968 3.560793,-0.11524 0.874625,0.93099 0.809042,2.86952 -0.121853,3.60176 -0.701578,0.55187 -1.419527,0.72494 -1.419527,0.34221 z m -11.06092,-0.71987 c 0.0054,-0.43656 0.06469,-0.58313 0.131774,-0.3257 0.06708,0.25744 0.06267,0.61462 -0.0098,0.79375 -0.07248,0.17913 -0.127363,-0.0315 -0.121971,-0.46805 z m 20.55217,-4.0349 c -0.329107,-0.41964 -0.319749,-0.429 0.0999,-0.0999 0.254661,0.19972 0.46302,0.40808 0.46302,0.46302 0,0.21776 -0.217273,0.0776 -0.562917,-0.36313 z m -9.888125,-2.43249 -2.645833,-0.1472 -0.04213,-0.92604 -0.04213,-0.92604 0.20574,0.92604 c 0.113158,0.50933 0.221414,0.71769 0.240571,0.46302 0.01916,-0.25466 0.153893,-0.46302 0.299413,-0.46302 0.145521,0 0.264584,-0.23812 0.264584,-0.52916 0,-0.29104 0.119062,-0.52917 0.264583,-0.52917 0.145521,0 0.264583,-0.23812 0.264583,-0.52917 0,-0.29104 0.119063,-0.52916 0.264584,-0.52916 0.145521,0 0.264583,-0.23813 0.264583,-0.52917 0,-0.41157 0.176389,-0.52917 0.79375,-0.52917 0.460818,0 0.792015,0.13873 0.789613,0.33073 -0.0023,0.1819 0.324851,0.96409 0.726948,1.73819 0.644961,1.24165 0.748182,1.33516 0.876214,0.79375 0.129672,-0.54834 0.164968,-0.56208 0.331386,-0.12905 0.246623,0.64175 0.238545,1.7778 -0.01218,1.71306 -0.10914,-0.0282 -1.389062,-0.11748 -2.844271,-0.19844 z m 64.955207,7.12885 c 0,-0.14552 -0.29765,-0.26459 -0.66145,-0.26459 -0.36381,0 -0.66146,-0.11906 -0.66146,-0.26458 0,-0.14552 -0.21477,-0.26458 -0.47727,-0.26458 -1.1881,0 -3.49148,-3.50408 -3.49148,-5.31151 0,-1.0308 0.95939,-3.15516 1.42492,-3.15516 0.15422,0 0.13334,0.13507 -0.0491,0.3175 -0.17463,0.17463 -0.3175,0.53181 -0.3175,0.79375 0,0.26194 -0.11907,0.47625 -0.26459,0.47625 -0.14552,0 -0.26458,0.47625 -0.26458,1.05833 0,0.58209 0.11906,1.05834 0.26458,1.05834 0.14552,0 0.26459,-0.35719 0.26459,-0.79375 0,-0.43657 0.11906,-0.79375 0.26458,-0.79375 0.14552,0 0.26458,-0.23813 0.26458,-0.52917 0,-0.29104 0.11906,-0.52917 0.26459,-0.52917 0.14552,0 0.26458,-0.18256 0.26458,-0.40569 0,-0.22313 0.41275,-0.81845 0.91722,-1.32292 0.50447,-0.50447 1.09978,-0.91722 1.32292,-0.91722 0.22313,0 0.40569,-0.11906 0.40569,-0.26458 0,-0.14552 0.35719,-0.26459 0.79375,-0.26459 0.43656,0 0.79376,-0.11906 0.79376,-0.26458 0,-0.14552 -0.11907,-0.26458 -0.26459,-0.26458 -0.14552,0 -0.26458,-0.11906 -0.26458,-0.26459 0,-0.45106 1.52375,-0.29135 2.51107,0.2632 1.20508,0.67685 3.30976,2.77642 3.30976,3.30172 0,0.22211 0.11907,0.40383 0.26459,0.40383 0.39554,0 0.3281,4.05041 -0.0806,4.83809 -0.18983,0.36589 -0.75538,1.00458 -1.25677,1.41931 -0.50141,0.41473 -0.95133,0.84336 -0.99984,0.9525 -0.0485,0.10914 -0.25687,0.19844 -0.46302,0.19844 -0.20615,0 -0.37482,0.11906 -0.37482,0.26458 0,0.14552 -0.3572,0.26458 -0.79376,0.26458 -0.43657,0 -0.79375,0.11907 -0.79375,0.26459 0,0.14552 -0.41672,0.26458 -0.92604,0.26458 -0.50932,0 -0.92604,-0.11906 -0.92604,-0.26458 z M 33.185334,165.45759 c -0.260992,-0.29644 -0.330729,-7.69048 -0.330729,-35.06613 0,-30.651755 0.04672,-34.737201 0.401261,-35.091747 0.358627,-0.358626 0.482356,-0.314449 1.164487,0.415774 l 0.763225,0.817036 h 42.650195 42.650197 l 0.76322,-0.817036 c 0.68213,-0.730223 0.80586,-0.7744 1.16449,-0.415774 0.35455,0.354547 0.40126,4.440813 0.40126,35.099477 0,30.65866 -0.0467,34.74493 -0.40126,35.09948 -0.35863,0.35862 -0.48236,0.31445 -1.16449,-0.41578 l -0.76322,-0.81703 H 77.833773 35.183578 l -0.741473,0.79375 c -0.847705,0.90747 -0.81681,0.89769 -1.256771,0.39798 z"
         id="path4199"
         inkscape:connector-curvature="0" />
      <path
         style="fill:#f07e34;stroke-width:0.26458335"
         d="m 31.796271,203.68877 c 0,-0.14552 -0.184005,-0.26458 -0.408901,-0.26458 -0.529291,0 -1.707765,-1.17848 -1.707765,-1.70777 0,-0.22489 -0.119063,-0.4089 -0.264584,-0.4089 -0.175536,0 -0.264583,-18.43264 -0.264583,-54.76875 0,-36.33611 0.08905,-54.768748 0.264583,-54.768748 0.145521,0 0.264584,-0.184005 0.264584,-0.408901 0,-0.529291 1.178474,-1.707765 1.707765,-1.707765 0.224896,0 0.408901,-0.119063 0.408901,-0.264584 0,-0.175375 15.522223,-0.264583 46.037502,-0.264583 30.515277,0 46.037497,0.08921 46.037497,0.264583 0,0.145521 0.18401,0.264584 0.4089,0.264584 0.52929,0 1.70777,1.178474 1.70777,1.707765 0,0.224896 0.11906,0.408901 0.26458,0.408901 0.17554,0 0.26459,18.432638 0.26459,54.768748 0,36.33611 -0.0891,54.76875 -0.26459,54.76875 -0.14552,0 -0.26458,0.18401 -0.26458,0.4089 0,0.52929 -1.17848,1.70777 -1.70777,1.70777 -0.22489,0 -0.4089,0.11906 -0.4089,0.26458 0,0.17538 -15.52222,0.26459 -46.037497,0.26459 -30.515279,0 -46.037502,-0.0892 -46.037502,-0.26459 z m 91.016669,-1.05833 c 0,-0.14552 0.184,-0.26458 0.4089,-0.26458 0.52929,0 1.70777,-1.17848 1.70777,-1.70777 0,-0.2249 0.11906,-0.4089 0.26458,-0.4089 0.17552,0 0.26458,-18.07986 0.26458,-53.71042 0,-35.63055 -0.0891,-53.710414 -0.26458,-53.710414 -0.14552,0 -0.26458,-0.200686 -0.26458,-0.445968 0,-0.607229 -1.03987,-1.670699 -1.63362,-1.670699 -0.26568,0 -0.48305,-0.119062 -0.48305,-0.264583 0,-0.175352 -15.16944,-0.264584 -44.979167,-0.264584 -29.809724,0 -44.979168,0.08923 -44.979168,0.264584 0,0.145521 -0.200686,0.264583 -0.445968,0.264583 -0.607229,0 -1.670699,1.039868 -1.670699,1.633621 0,0.265675 -0.119062,0.483046 -0.264583,0.483046 -0.17552,0 -0.264584,18.079864 -0.264584,53.710414 0,35.63056 0.08906,53.71042 0.264584,53.71042 0.145521,0 0.264583,0.184 0.264583,0.4089 0,0.52929 1.178474,1.70777 1.707765,1.70777 0.224896,0 0.408902,0.11906 0.408902,0.26458 0,0.17535 15.169444,0.26458 44.979168,0.26458 29.809727,0 44.979167,-0.0892 44.979167,-0.26458 z M 69.962418,197.9935 c -0.482393,-0.51522 -0.595312,-0.94101 -0.595312,-2.2448 0,-1.35552 0.102303,-1.71128 0.649433,-2.25841 l 0.64943,-0.64943 h 7.167804 7.167803 l 0.64943,0.64943 c 0.547415,0.54741 0.649433,0.90269 0.649433,2.26165 0,1.42714 -0.08352,1.68573 -0.727604,2.25262 l -0.727604,0.64041 -7.14375,-0.008 -7.14375,-0.008 -0.595313,-0.63583 z m 9.988021,-0.12556 c 0,-0.15297 0.840788,-0.26458 1.993194,-0.26458 1.92151,0 2.026184,-0.033 2.910417,-0.91723 1.08368,-1.08367 1.153683,-1.78078 0.26779,-2.66667 l -0.649431,-0.64944 h -6.638636 -6.638637 l -0.649431,0.64944 c -0.872723,0.87272 -0.898956,2.54255 -0.05412,3.44488 0.58139,0.62095 0.698947,0.6362 5.027083,0.652 2.788915,0.0102 4.431771,-0.0819 4.431771,-0.2484 z m 18.520834,-1.05833 c 0,-0.14552 -0.181726,-0.26459 -0.403839,-0.26459 -0.22211,0 -0.936485,-0.53265 -1.5875,-1.18366 -0.651012,-0.65101 -1.183661,-1.36539 -1.183661,-1.5875 0,-0.22211 -0.119063,-0.40384 -0.264583,-0.40384 -0.145521,0 -0.264584,-0.23812 -0.264584,-0.52916 0,-0.29104 -0.119062,-0.52917 -0.264583,-0.52917 -0.145521,0 -0.264583,-0.23813 -0.264583,-0.52917 0,-0.29104 0.119062,-0.52916 0.264583,-0.52916 0.145521,0 0.264583,0.23812 0.264583,0.52916 0,0.29104 0.119063,0.52917 0.264584,0.52917 0.14552,0 0.264583,0.23813 0.264583,0.52917 0,0.29104 0.119062,0.52916 0.264583,0.52916 0.145521,0 0.264584,0.18401 0.264584,0.4089 0,0.2249 0.292245,0.70115 0.649433,1.05834 0.357187,0.35718 0.833437,0.64943 1.058333,0.64943 0.224896,0 0.4089,0.11906 0.4089,0.26458 0,0.14552 0.238125,0.26459 0.529167,0.26459 0.291042,0 0.529167,0.11906 0.529167,0.26458 0,0.14552 0.569028,0.26458 1.26451,0.26458 0.96098,0 1.35605,-0.12701 1.64591,-0.52916 0.20977,-0.29104 0.53768,-0.52917 0.72868,-0.52917 0.48224,0 2.18173,-1.74499 2.18173,-2.24014 0,-0.22313 0.11907,-0.40569 0.26459,-0.40569 0.15119,0 0.26458,-0.79375 0.26458,-1.85209 0,-1.05833 -0.11339,-1.85208 -0.26458,-1.85208 -0.14552,0 -0.26459,-0.30942 -0.26459,-0.6876 0,-0.42952 -0.31155,-0.97862 -0.83006,-1.46299 -0.45653,-0.42647 -0.78067,-0.82479 -0.72029,-0.88517 0.21088,-0.21087 2.60869,2.18832 2.60869,2.6102 0,0.23406 0.11906,0.42556 0.26458,0.42556 0.15434,0 0.26458,0.88194 0.26458,2.11667 0,1.23472 -0.11024,2.11666 -0.26458,2.11666 -0.14552,0 -0.26458,0.18422 -0.26458,0.40937 0,0.54464 -2.20761,2.76563 -2.74897,2.76563 -0.23432,0 -0.42603,0.11907 -0.42603,0.26459 0,0.15434 -0.88195,0.26458 -2.11667,0.26458 -1.234723,0 -2.116667,-0.11024 -2.116667,-0.26458 z m -53.908855,-1.46194 c -0.551888,-0.58944 -0.595313,-0.87776 -0.595313,-3.95257 v -3.31674 h -3.175 c -1.940278,0 -3.175,-0.1029 -3.175,-0.26459 0,-0.14552 -0.238125,-0.26458 -0.529167,-0.26458 -0.352778,0 -0.529166,-0.17639 -0.529166,-0.52917 0,-0.29104 -0.119063,-0.52916 -0.264584,-0.52916 -0.159662,0 -0.264583,-1.10644 -0.264583,-2.79015 0,-2.60961 0.04202,-2.83218 0.649432,-3.43959 0.620498,-0.6205 0.797313,-0.64943 3.96875,-0.64943 h 3.319318 v -3.31931 c 0,-3.17144 0.02893,-3.34826 0.649432,-3.96876 0.610581,-0.61058 0.820301,-0.64893 3.505729,-0.64101 3.994573,0.0118 3.877759,-0.12158 3.811077,4.35025 l -0.05336,3.57883 h 3.331632 c 3.18451,0 3.36031,0.0287 3.981062,0.64943 0.60741,0.60741 0.649433,0.82998 0.649433,3.43959 0,1.53458 -0.105177,2.79015 -0.233725,2.79015 -0.128547,0 -0.295994,0.23812 -0.372104,0.52916 -0.07611,0.29104 -0.328121,0.52917 -0.560025,0.52917 -0.231905,0 -0.421646,0.11906 -0.421646,0.26458 0,0.16169 -1.234723,0.26459 -3.175,0.26459 h -3.175 v 3.31931 c 0,3.17144 -0.02893,3.34826 -0.649432,3.96875 -0.607994,0.608 -0.823239,0.6484 -3.373437,0.63325 -2.524125,-0.015 -2.767688,-0.0628 -3.319318,-0.652 z m 4.167187,-0.65473 c 0,-0.14552 0.184006,-0.26458 0.408902,-0.26458 0.224896,0 0.701146,-0.29225 1.058333,-0.64944 0.620499,-0.62049 0.649432,-0.79731 0.649432,-3.96875 v -3.31931 h 3.381174 c 3.077652,0 3.415411,-0.0475 3.762576,-0.52917 0.209772,-0.29104 0.593243,-0.52917 0.852159,-0.52917 0.409695,0 0.470758,-0.25895 0.470758,-1.9964 0,-1.76686 -0.07467,-2.07107 -0.649433,-2.64583 -0.620499,-0.6205 -0.797312,-0.64943 -3.968749,-0.64943 h -3.319318 v -3.30528 c 0,-3.01715 -0.05029,-3.36312 -0.576881,-3.96875 -0.529856,-0.60939 -0.757296,-0.66347 -2.790151,-0.66347 -1.997115,0 -2.276698,0.0634 -2.862704,0.64943 -0.620498,0.6205 -0.649431,0.79731 -0.649431,3.96875 v 3.31932 h -3.319319 c -3.171436,0 -3.348251,0.0289 -3.96875,0.64943 -0.582497,0.5825 -0.649431,0.87007 -0.649431,2.79015 0,1.92008 0.06693,2.20765 0.649431,2.79015 0.620499,0.6205 0.797314,0.64943 3.96875,0.64943 h 3.319319 v 3.31675 c 0,3.07481 0.04342,3.36313 0.595312,3.95257 0.490173,0.52353 0.864003,0.63868 2.116667,0.652 0.848636,0.009 1.521354,-0.10081 1.521354,-0.2484 z m -2.187222,-3.83333 c -0.543278,-1.09794 -0.987778,-2.05382 -0.987778,-2.12417 0,-0.0704 1.071563,-0.12792 2.38125,-0.12792 1.309688,0 2.377486,0.0893 2.372885,0.19844 -0.02337,0.55445 -2.03101,3.91219 -2.377295,3.97599 -0.266897,0.0492 -0.732085,-0.59461 -1.389062,-1.92234 z m -5.948716,-5.8975 c -2.033385,-1.02624 -2.456509,-1.71928 -1.314715,-2.15339 0.331933,-0.1262 1.247185,-0.53997 2.033893,-0.91949 0.786708,-0.37952 1.467627,-0.69004 1.513153,-0.69004 0.04552,0 0.08277,1.07156 0.08277,2.38125 0,1.30969 -0.0893,2.37417 -0.198438,2.36552 -0.10914,-0.009 -1.06164,-0.45138 -2.116667,-0.98385 z m 7.606771,0.735 c 0,-0.14552 0.160141,-0.26459 0.355868,-0.26459 0.195728,0 0.546011,-0.2101 0.778408,-0.4669 0.386839,-0.42745 0.386888,-0.54052 5.82e-4,-1.33817 -0.242538,-0.50078 -0.84145,-1.08526 -1.408482,-1.37454 -0.946911,-0.48308 -1.00371,-0.48429 -1.414775,-0.0301 -0.235551,0.26027 -0.428267,0.61268 -0.428267,0.78312 0,0.17044 -0.119063,0.3099 -0.264584,0.3099 -0.341667,0 -0.333489,-0.17062 0.04179,-0.87183 0.532139,-0.99432 0.948327,-1.24484 2.068007,-1.24484 1.467003,0 2.391509,0.89473 2.379708,2.30308 -0.009,1.07655 -0.318306,1.60322 -1.250051,2.12869 -0.709073,0.39989 -0.858202,0.41139 -0.858202,0.0661 z m 4.762501,-2.11667 c 0,-1.30969 0.05756,-2.38125 0.127914,-2.38125 0.07035,0 1.022853,0.44283 2.116667,0.98406 1.206011,0.59675 1.988752,1.14666 1.988752,1.39719 0,0.25053 -0.782741,0.80044 -1.988752,1.39719 -1.093814,0.54123 -2.046314,0.98406 -2.116667,0.98406 -0.07035,0 -0.127914,-1.07156 -0.127914,-2.38125 z m -7.408334,-5.155 c 0,-0.0703 0.442827,-1.02285 0.984061,-2.11666 0.637472,-1.28831 1.139654,-1.98875 1.425833,-1.98875 0.290141,0 0.769703,0.69052 1.397189,2.01183 0.52548,1.10651 0.955417,2.05901 0.955417,2.11667 0,0.0577 -1.071562,0.10483 -2.38125,0.10483 -1.309687,0 -2.38125,-0.0576 -2.38125,-0.12792 z m 66.145835,6.7425 c 0,-0.14552 -0.18173,-0.26458 -0.40384,-0.26458 -0.22211,0 -0.93648,-0.53265 -1.5875,-1.18366 -0.65101,-0.65102 -1.18366,-1.3654 -1.18366,-1.5875 0,-0.22212 -0.11906,-0.40384 -0.26458,-0.40384 -0.14552,0 -0.26459,-0.23813 -0.26459,-0.52917 0,-0.29104 -0.11906,-0.52917 -0.26458,-0.52917 -0.14552,0 -0.26458,-0.23812 -0.26458,-0.52916 0,-0.29105 0.11906,-0.52917 0.26458,-0.52917 0.14552,0 0.26458,0.11906 0.26458,0.26458 0,0.14552 0.11907,0.26459 0.26459,0.26459 0.14552,0 0.26458,-0.35719 0.26458,-0.79375 0,-0.43657 0.11906,-0.79375 0.26458,-0.79375 0.14552,0 0.26459,-0.23813 0.26459,-0.52917 0,-0.29104 0.11906,-0.52917 0.26458,-0.52917 0.14552,0 0.26458,-0.18256 0.26458,-0.40569 0,-0.22313 0.41275,-0.81844 0.91723,-1.32291 0.50447,-0.50448 1.09978,-0.91723 1.32291,-0.91723 0.22313,0 0.4057,-0.11906 0.4057,-0.26458 0,-0.14552 0.35718,-0.26458 0.79375,-0.26458 0.43656,0 0.79375,-0.11907 0.79375,-0.26459 0,-0.34976 0.87722,-0.33986 1.23097,0.0139 0.15316,0.15316 0.58672,0.31134 0.96347,0.3515 0.8089,0.0863 3.09722,2.04645 3.09722,2.65312 0,0.23159 0.11907,0.42108 0.26459,0.42108 0.15434,0 0.26458,0.88194 0.26458,2.11666 0,1.23473 -0.11024,2.11667 -0.26458,2.11667 -0.14552,0 -0.26459,0.18422 -0.26459,0.40937 0,0.54464 -2.2076,2.76563 -2.74896,2.76563 -0.23432,0 -0.42604,0.11906 -0.42604,0.26458 0,0.15434 -0.88194,0.26458 -2.11666,0.26458 -1.23473,0 -2.11667,-0.11024 -2.11667,-0.26458 z M 33.185334,165.45759 c -0.260992,-0.29644 -0.330729,-7.69048 -0.330729,-35.06613 0,-30.651755 0.04672,-34.737201 0.401261,-35.091747 0.358627,-0.358626 0.482356,-0.314449 1.164487,0.415774 l 0.763225,0.817036 h 42.650195 42.650197 l 0.76322,-0.817036 c 0.68213,-0.730223 0.80586,-0.7744 1.16449,-0.415774 0.35455,0.354547 0.40126,4.440813 0.40126,35.099477 0,30.65866 -0.0467,34.74493 -0.40126,35.09948 -0.35863,0.35862 -0.48236,0.31445 -1.16449,-0.41578 l -0.76322,-0.81703 H 77.833773 35.183578 l -0.741473,0.79375 c -0.847705,0.90747 -0.81681,0.89769 -1.256771,0.39798 z"
         id="path4197"
         inkscape:connector-curvature="0" />
      <path
         style="fill:#2f99a1;stroke-width:0.26458335"
         d="m 31.796271,203.68877 c 0,-0.14552 -0.184005,-0.26458 -0.408901,-0.26458 -0.529291,0 -1.707765,-1.17848 -1.707765,-1.70777 0,-0.22489 -0.119063,-0.4089 -0.264584,-0.4089 -0.175536,0 -0.264583,-18.43264 -0.264583,-54.76875 0,-36.33611 0.08905,-54.768748 0.264583,-54.768748 0.145521,0 0.264584,-0.184005 0.264584,-0.408901 0,-0.529291 1.178474,-1.707765 1.707765,-1.707765 0.224896,0 0.408901,-0.119063 0.408901,-0.264584 0,-0.175375 15.522223,-0.264583 46.037502,-0.264583 30.515277,0 46.037497,0.08921 46.037497,0.264583 0,0.145521 0.18401,0.264584 0.4089,0.264584 0.52929,0 1.70777,1.178474 1.70777,1.707765 0,0.224896 0.11906,0.408901 0.26458,0.408901 0.17554,0 0.26459,18.432638 0.26459,54.768748 0,36.33611 -0.0891,54.76875 -0.26459,54.76875 -0.14552,0 -0.26458,0.18401 -0.26458,0.4089 0,0.52929 -1.17848,1.70777 -1.70777,1.70777 -0.22489,0 -0.4089,0.11906 -0.4089,0.26458 0,0.17538 -15.52222,0.26459 -46.037497,0.26459 -30.515279,0 -46.037502,-0.0892 -46.037502,-0.26459 z m 91.016669,-1.05833 c 0,-0.14552 0.184,-0.26458 0.4089,-0.26458 0.52929,0 1.70777,-1.17848 1.70777,-1.70777 0,-0.2249 0.11906,-0.4089 0.26458,-0.4089 0.17552,0 0.26458,-18.07986 0.26458,-53.71042 0,-35.63055 -0.0891,-53.710414 -0.26458,-53.710414 -0.14552,0 -0.26458,-0.200686 -0.26458,-0.445968 0,-0.607229 -1.03987,-1.670699 -1.63362,-1.670699 -0.26568,0 -0.48305,-0.119062 -0.48305,-0.264583 0,-0.175352 -15.16944,-0.264584 -44.979167,-0.264584 -29.809724,0 -44.979168,0.08923 -44.979168,0.264584 0,0.145521 -0.200686,0.264583 -0.445968,0.264583 -0.607229,0 -1.670699,1.039868 -1.670699,1.633621 0,0.265675 -0.119062,0.483046 -0.264583,0.483046 -0.17552,0 -0.264584,18.079864 -0.264584,53.710414 0,35.63056 0.08906,53.71042 0.264584,53.71042 0.145521,0 0.264583,0.184 0.264583,0.4089 0,0.52929 1.178474,1.70777 1.707765,1.70777 0.224896,0 0.408902,0.11906 0.408902,0.26458 0,0.17535 15.169444,0.26458 44.979168,0.26458 29.809727,0 44.979167,-0.0892 44.979167,-0.26458 z M 69.962418,197.9935 c -0.482393,-0.51522 -0.595312,-0.94101 -0.595312,-2.2448 0,-1.35552 0.102303,-1.71128 0.649433,-2.25841 l 0.64943,-0.64943 h 7.167804 7.167803 l 0.64943,0.64943 c 0.547415,0.54741 0.649433,0.90269 0.649433,2.26165 0,1.42714 -0.08352,1.68573 -0.727604,2.25262 l -0.727604,0.64041 -7.14375,-0.008 -7.14375,-0.008 -0.595313,-0.63583 z m 9.988021,-0.12556 c 0,-0.15297 0.840788,-0.26458 1.993194,-0.26458 1.92151,0 2.026184,-0.033 2.910417,-0.91723 1.08368,-1.08367 1.153683,-1.78078 0.26779,-2.66667 l -0.649431,-0.64944 h -6.638636 -6.638637 l -0.649431,0.64944 c -0.872723,0.87272 -0.898956,2.54255 -0.05412,3.44488 0.58139,0.62095 0.698947,0.6362 5.027083,0.652 2.788915,0.0102 4.431771,-0.0819 4.431771,-0.2484 z m 18.520834,-1.05833 c 0,-0.14552 -0.181726,-0.26459 -0.403839,-0.26459 -0.22211,0 -0.936485,-0.53265 -1.5875,-1.18366 -0.651012,-0.65101 -1.183661,-1.36539 -1.183661,-1.5875 0,-0.22211 -0.119063,-0.40384 -0.264583,-0.40384 -0.145521,0 -0.264584,-0.23812 -0.264584,-0.52916 0,-0.29104 -0.119062,-0.52917 -0.264583,-0.52917 -0.145521,0 -0.264583,-0.23813 -0.264583,-0.52917 0,-0.29104 0.119062,-0.52916 0.264583,-0.52916 0.145521,0 0.264583,0.23812 0.264583,0.52916 0,0.29104 0.119063,0.52917 0.264584,0.52917 0.14552,0 0.264583,0.23813 0.264583,0.52917 0,0.29104 0.119062,0.52916 0.264583,0.52916 0.145521,0 0.264584,0.18401 0.264584,0.4089 0,0.2249 0.292245,0.70115 0.649433,1.05834 0.357187,0.35718 0.833437,0.64943 1.058333,0.64943 0.224896,0 0.4089,0.11906 0.4089,0.26458 0,0.14552 0.238125,0.26459 0.529167,0.26459 0.291042,0 0.529167,0.11906 0.529167,0.26458 0,0.14552 0.569028,0.26458 1.26451,0.26458 0.96098,0 1.35605,-0.12701 1.64591,-0.52916 0.20977,-0.29104 0.53768,-0.52917 0.72868,-0.52917 0.48224,0 2.18173,-1.74499 2.18173,-2.24014 0,-0.22313 0.11907,-0.40569 0.26459,-0.40569 0.15119,0 0.26458,-0.79375 0.26458,-1.85209 0,-1.05833 -0.11339,-1.85208 -0.26458,-1.85208 -0.14552,0 -0.26459,-0.30942 -0.26459,-0.6876 0,-0.42952 -0.31155,-0.97862 -0.83006,-1.46299 -0.45653,-0.42647 -0.78067,-0.82479 -0.72029,-0.88517 0.21088,-0.21087 2.60869,2.18832 2.60869,2.6102 0,0.23406 0.11906,0.42556 0.26458,0.42556 0.15434,0 0.26458,0.88194 0.26458,2.11667 0,1.23472 -0.11024,2.11666 -0.26458,2.11666 -0.14552,0 -0.26458,0.18422 -0.26458,0.40937 0,0.54464 -2.20761,2.76563 -2.74897,2.76563 -0.23432,0 -0.42603,0.11907 -0.42603,0.26459 0,0.15434 -0.88195,0.26458 -2.11667,0.26458 -1.234723,0 -2.116667,-0.11024 -2.116667,-0.26458 z m -53.908855,-1.46194 c -0.551888,-0.58944 -0.595313,-0.87776 -0.595313,-3.95257 v -3.31674 h -3.175 c -1.940278,0 -3.175,-0.1029 -3.175,-0.26459 0,-0.14552 -0.238125,-0.26458 -0.529167,-0.26458 -0.352778,0 -0.529166,-0.17639 -0.529166,-0.52917 0,-0.29104 -0.119063,-0.52916 -0.264584,-0.52916 -0.159662,0 -0.264583,-1.10644 -0.264583,-2.79015 0,-2.60961 0.04202,-2.83218 0.649432,-3.43959 0.620498,-0.6205 0.797313,-0.64943 3.96875,-0.64943 h 3.319318 v -3.31931 c 0,-3.17144 0.02893,-3.34826 0.649432,-3.96876 0.610581,-0.61058 0.820301,-0.64893 3.505729,-0.64101 3.994573,0.0118 3.877759,-0.12158 3.811077,4.35025 l -0.05336,3.57883 h 3.331632 c 3.18451,0 3.36031,0.0287 3.981062,0.64943 0.60741,0.60741 0.649433,0.82998 0.649433,3.43959 0,1.53458 -0.105177,2.79015 -0.233725,2.79015 -0.128547,0 -0.295994,0.23812 -0.372104,0.52916 -0.07611,0.29104 -0.328121,0.52917 -0.560025,0.52917 -0.231905,0 -0.421646,0.11906 -0.421646,0.26458 0,0.16169 -1.234723,0.26459 -3.175,0.26459 h -3.175 v 3.31931 c 0,3.17144 -0.02893,3.34826 -0.649432,3.96875 -0.607994,0.608 -0.823239,0.6484 -3.373437,0.63325 -2.524125,-0.015 -2.767688,-0.0628 -3.319318,-0.652 z m 4.167187,-0.65473 c 0,-0.14552 0.184006,-0.26458 0.408902,-0.26458 0.224896,0 0.701146,-0.29225 1.058333,-0.64944 0.620499,-0.62049 0.649432,-0.79731 0.649432,-3.96875 v -3.31931 h 3.381174 c 3.077652,0 3.415411,-0.0475 3.762576,-0.52917 0.209772,-0.29104 0.593243,-0.52917 0.852159,-0.52917 0.409695,0 0.470758,-0.25895 0.470758,-1.9964 0,-1.76686 -0.07467,-2.07107 -0.649433,-2.64583 -0.620499,-0.6205 -0.797312,-0.64943 -3.968749,-0.64943 h -3.319318 v -3.30528 c 0,-3.01715 -0.05029,-3.36312 -0.576881,-3.96875 -0.529856,-0.60939 -0.757296,-0.66347 -2.790151,-0.66347 -1.997115,0 -2.276698,0.0634 -2.862704,0.64943 -0.620498,0.6205 -0.649431,0.79731 -0.649431,3.96875 v 3.31932 h -3.319319 c -3.171436,0 -3.348251,0.0289 -3.96875,0.64943 -0.582497,0.5825 -0.649431,0.87007 -0.649431,2.79015 0,1.92008 0.06693,2.20765 0.649431,2.79015 0.620499,0.6205 0.797314,0.64943 3.96875,0.64943 h 3.319319 v 3.31675 c 0,3.07481 0.04342,3.36313 0.595312,3.95257 0.490173,0.52353 0.864003,0.63868 2.116667,0.652 0.848636,0.009 1.521354,-0.10081 1.521354,-0.2484 z m -2.187222,-3.83333 c -0.543278,-1.09794 -0.987778,-2.05382 -0.987778,-2.12417 0,-0.0704 1.071563,-0.12792 2.38125,-0.12792 1.309688,0 2.377486,0.0893 2.372885,0.19844 -0.02337,0.55445 -2.03101,3.91219 -2.377295,3.97599 -0.266897,0.0492 -0.732085,-0.59461 -1.389062,-1.92234 z m -5.948716,-5.8975 c -2.033385,-1.02624 -2.456509,-1.71928 -1.314715,-2.15339 0.331933,-0.1262 1.247185,-0.53997 2.033893,-0.91949 0.786708,-0.37952 1.467627,-0.69004 1.513153,-0.69004 0.04552,0 0.08277,1.07156 0.08277,2.38125 0,1.30969 -0.0893,2.37417 -0.198438,2.36552 -0.10914,-0.009 -1.06164,-0.45138 -2.116667,-0.98385 z m 7.606771,0.735 c 0,-0.14552 0.160141,-0.26459 0.355868,-0.26459 0.195728,0 0.546011,-0.2101 0.778408,-0.4669 0.386839,-0.42745 0.386888,-0.54052 5.82e-4,-1.33817 -0.242538,-0.50078 -0.84145,-1.08526 -1.408482,-1.37454 -0.946911,-0.48308 -1.00371,-0.48429 -1.414775,-0.0301 -0.235551,0.26027 -0.428267,0.61268 -0.428267,0.78312 0,0.17044 -0.119063,0.3099 -0.264584,0.3099 -0.341667,0 -0.333489,-0.17062 0.04179,-0.87183 0.532139,-0.99432 0.948327,-1.24484 2.068007,-1.24484 1.467003,0 2.391509,0.89473 2.379708,2.30308 -0.009,1.07655 -0.318306,1.60322 -1.250051,2.12869 -0.709073,0.39989 -0.858202,0.41139 -0.858202,0.0661 z m 4.762501,-2.11667 c 0,-1.30969 0.05756,-2.38125 0.127914,-2.38125 0.07035,0 1.022853,0.44283 2.116667,0.98406 1.206011,0.59675 1.988752,1.14666 1.988752,1.39719 0,0.25053 -0.782741,0.80044 -1.988752,1.39719 -1.093814,0.54123 -2.046314,0.98406 -2.116667,0.98406 -0.07035,0 -0.127914,-1.07156 -0.127914,-2.38125 z m -7.408334,-5.155 c 0,-0.0703 0.442827,-1.02285 0.984061,-2.11666 0.637472,-1.28831 1.139654,-1.98875 1.425833,-1.98875 0.290141,0 0.769703,0.69052 1.397189,2.01183 0.52548,1.10651 0.955417,2.05901 0.955417,2.11667 0,0.0577 -1.071562,0.10483 -2.38125,0.10483 -1.309687,0 -2.38125,-0.0576 -2.38125,-0.12792 z m 66.145835,6.7425 c 0,-0.14552 -0.18173,-0.26458 -0.40384,-0.26458 -0.22211,0 -0.93648,-0.53265 -1.5875,-1.18366 -0.65101,-0.65102 -1.18366,-1.3654 -1.18366,-1.5875 0,-0.22212 -0.11906,-0.40384 -0.26458,-0.40384 -0.14552,0 -0.26459,-0.23813 -0.26459,-0.52917 0,-0.29104 -0.11906,-0.52917 -0.26458,-0.52917 -0.14552,0 -0.26458,-0.23812 -0.26458,-0.52916 0,-0.29105 0.11906,-0.52917 0.26458,-0.52917 0.14552,0 0.26458,0.23812 0.26458,0.52917 0,0.29104 0.11907,0.52916 0.26459,0.52916 0.14552,0 0.26458,0.23813 0.26458,0.52917 0,0.29104 0.11906,0.52917 0.26458,0.52917 0.14552,0 0.26459,0.184 0.26459,0.4089 0,0.22489 0.29224,0.70114 0.64943,1.05833 0.35719,0.35719 0.83344,0.64943 1.05833,0.64943 0.2249,0 0.4089,0.11907 0.4089,0.26459 0,0.14552 0.23813,0.26458 0.52917,0.26458 0.29104,0 0.52917,0.11906 0.52917,0.26458 0,0.14552 0.56903,0.26459 1.2645,0.26459 0.96099,0 1.35606,-0.12702 1.64591,-0.52917 0.20978,-0.29104 0.53768,-0.52917 0.72869,-0.52917 0.48223,0 2.18173,-1.74499 2.18173,-2.24014 0,-0.22313 0.11906,-0.40569 0.26458,-0.40569 0.15119,0 0.26459,-0.79375 0.26459,-1.85208 0,-1.05834 -0.1134,-1.85209 -0.26459,-1.85209 -0.14552,0 -0.26458,-0.30942 -0.26458,-0.68759 0,-0.42952 -0.31155,-0.97863 -0.83006,-1.46299 -0.45654,-0.42647 -0.78378,-0.82168 -0.72722,-0.87825 0.20202,-0.20201 2.61561,2.21258 2.61561,2.6167 0,0.22667 0.11907,0.41213 0.26459,0.41213 0.15434,0 0.26458,0.88195 0.26458,2.11667 0,1.23472 -0.11024,2.11667 -0.26458,2.11667 -0.14552,0 -0.26459,0.18421 -0.26459,0.40937 0,0.54464 -2.2076,2.76563 -2.74896,2.76563 -0.23432,0 -0.42604,0.11906 -0.42604,0.26458 0,0.15434 -0.88194,0.26458 -2.11666,0.26458 -1.23473,0 -2.11667,-0.11024 -2.11667,-0.26458 z M 33.185334,165.45759 c -0.260992,-0.29644 -0.330729,-7.69048 -0.330729,-35.06613 0,-30.651755 0.04672,-34.737201 0.401261,-35.091747 0.358627,-0.358626 0.482356,-0.314449 1.164487,0.415774 l 0.763225,0.817036 h 42.650195 42.650197 l 0.76322,-0.817036 c 0.68213,-0.730223 0.80586,-0.7744 1.16449,-0.415774 0.35455,0.354547 0.40126,4.440813 0.40126,35.099477 0,30.65866 -0.0467,34.74493 -0.40126,35.09948 -0.35863,0.35862 -0.48236,0.31445 -1.16449,-0.41578 l -0.76322,-0.81703 H 77.833773 35.183578 l -0.741473,0.79375 c -0.847705,0.90747 -0.81681,0.89769 -1.256771,0.39798 z"
         id="path4195"
         inkscape:connector-curvature="0" />
      <path
         style="fill:#96266c;stroke-width:0.26458335"
         d="m 31.796271,203.68877 c 0,-0.14552 -0.184005,-0.26458 -0.408901,-0.26458 -0.529291,0 -1.707765,-1.17848 -1.707765,-1.70777 0,-0.22489 -0.119063,-0.4089 -0.264584,-0.4089 -0.175536,0 -0.264583,-18.43264 -0.264583,-54.76875 0,-36.33611 0.08905,-54.768748 0.264583,-54.768748 0.145521,0 0.264584,-0.184005 0.264584,-0.408901 0,-0.529291 1.178474,-1.707765 1.707765,-1.707765 0.224896,0 0.408901,-0.119063 0.408901,-0.264584 0,-0.175375 15.522223,-0.264583 46.037502,-0.264583 30.515277,0 46.037497,0.08921 46.037497,0.264583 0,0.145521 0.18401,0.264584 0.4089,0.264584 0.52929,0 1.70777,1.178474 1.70777,1.707765 0,0.224896 0.11906,0.408901 0.26458,0.408901 0.17554,0 0.26459,18.432638 0.26459,54.768748 0,36.33611 -0.0891,54.76875 -0.26459,54.76875 -0.14552,0 -0.26458,0.18401 -0.26458,0.4089 0,0.52929 -1.17848,1.70777 -1.70777,1.70777 -0.22489,0 -0.4089,0.11906 -0.4089,0.26458 0,0.17538 -15.52222,0.26459 -46.037497,0.26459 -30.515279,0 -46.037502,-0.0892 -46.037502,-0.26459 z m 91.016669,-1.05833 c 0,-0.14552 0.184,-0.26458 0.4089,-0.26458 0.52929,0 1.70777,-1.17848 1.70777,-1.70777 0,-0.2249 0.11906,-0.4089 0.26458,-0.4089 0.17552,0 0.26458,-18.07986 0.26458,-53.71042 0,-35.63055 -0.0891,-53.710414 -0.26458,-53.710414 -0.14552,0 -0.26458,-0.200686 -0.26458,-0.445968 0,-0.607229 -1.03987,-1.670699 -1.63362,-1.670699 -0.26568,0 -0.48305,-0.119062 -0.48305,-0.264583 0,-0.175352 -15.16944,-0.264584 -44.979167,-0.264584 -29.809724,0 -44.979168,0.08923 -44.979168,0.264584 0,0.145521 -0.200686,0.264583 -0.445968,0.264583 -0.607229,0 -1.670699,1.039868 -1.670699,1.633621 0,0.265675 -0.119062,0.483046 -0.264583,0.483046 -0.17552,0 -0.264584,18.079864 -0.264584,53.710414 0,35.63056 0.08906,53.71042 0.264584,53.71042 0.145521,0 0.264583,0.184 0.264583,0.4089 0,0.52929 1.178474,1.70777 1.707765,1.70777 0.224896,0 0.408902,0.11906 0.408902,0.26458 0,0.17535 15.169444,0.26458 44.979168,0.26458 29.809727,0 44.979167,-0.0892 44.979167,-0.26458 z M 69.962418,197.9935 c -0.482393,-0.51522 -0.595312,-0.94101 -0.595312,-2.2448 0,-1.35552 0.102303,-1.71128 0.649433,-2.25841 l 0.64943,-0.64943 h 7.167804 7.167803 l 0.64943,0.64943 c 0.547415,0.54741 0.649433,0.90269 0.649433,2.26165 0,1.42714 -0.08352,1.68573 -0.727604,2.25262 l -0.727604,0.64041 -7.14375,-0.008 -7.14375,-0.008 -0.595313,-0.63583 z m 15.159422,-0.51041 c 0.477856,-0.47785 0.649433,-0.93539 0.649433,-1.73182 0,-0.79642 -0.171577,-1.25396 -0.649433,-1.73181 l -0.649431,-0.64944 h -6.638636 -6.638637 l -0.649431,0.64944 c -0.872723,0.87272 -0.898956,2.54255 -0.05412,3.44488 l 0.595312,0.63582 6.692755,0.0162 6.692757,0.0162 0.649431,-0.64943 z m 13.349433,-0.67348 c 0,-0.14552 -0.181726,-0.26459 -0.403839,-0.26459 -0.22211,0 -0.936485,-0.53265 -1.5875,-1.18366 -0.651012,-0.65101 -1.183661,-1.36539 -1.183661,-1.5875 0,-0.22211 -0.119063,-0.40384 -0.264583,-0.40384 -0.145521,0 -0.264584,-0.23812 -0.264584,-0.52916 0,-0.29104 -0.119062,-0.52917 -0.264583,-0.52917 -0.145521,0 -0.264583,-0.23813 -0.264583,-0.52917 0,-0.29104 0.119062,-0.52916 0.264583,-0.52916 0.145521,0 0.264583,0.23812 0.264583,0.52916 0,0.29104 0.119063,0.52917 0.264584,0.52917 0.14552,0 0.264583,0.23813 0.264583,0.52917 0,0.29104 0.119062,0.52916 0.264583,0.52916 0.145521,0 0.264584,0.18401 0.264584,0.4089 0,0.2249 0.292245,0.70115 0.649433,1.05834 0.357187,0.35718 0.833437,0.64943 1.058333,0.64943 0.224896,0 0.4089,0.11906 0.4089,0.26458 0,0.14552 0.238125,0.26459 0.529167,0.26459 0.291042,0 0.529167,0.11906 0.529167,0.26458 0,0.14934 0.75157,0.26458 1.72554,0.26458 h 1.72555 l 1.44945,-1.44945 c 0.7972,-0.7972 1.44946,-1.63064 1.44946,-1.85209 0,-0.22144 0.11906,-0.40262 0.26458,-0.40262 0.15119,0 0.26459,-0.79375 0.26459,-1.85209 0,-1.05833 -0.1134,-1.85208 -0.26459,-1.85208 -0.14552,0 -0.26458,-0.18793 -0.26458,-0.41762 0,-0.22969 -0.49113,-0.8895 -1.0914,-1.46623 -0.60027,-0.57675 -1.04347,-1.09656 -0.98488,-1.15515 0.20863,-0.20863 2.60545,2.19555 2.60545,2.61344 0,0.23406 0.11906,0.42556 0.26458,0.42556 0.15434,0 0.26458,0.88194 0.26458,2.11667 0,1.23472 -0.11024,2.11666 -0.26458,2.11666 -0.14552,0 -0.26458,0.18422 -0.26458,0.40937 0,0.54464 -2.20761,2.76563 -2.74897,2.76563 -0.23432,0 -0.42603,0.11907 -0.42603,0.26459 0,0.15434 -0.88195,0.26458 -2.11667,0.26458 -1.234723,0 -2.116667,-0.11024 -2.116667,-0.26458 z m -53.908855,-1.46194 c -0.551888,-0.58944 -0.595313,-0.87776 -0.595313,-3.95257 v -3.31674 h -3.175 c -1.940278,0 -3.175,-0.1029 -3.175,-0.26459 0,-0.14552 -0.238125,-0.26458 -0.529167,-0.26458 -0.352778,0 -0.529166,-0.17639 -0.529166,-0.52917 0,-0.29104 -0.119063,-0.52916 -0.264584,-0.52916 -0.159662,0 -0.264583,-1.10644 -0.264583,-2.79015 0,-2.60961 0.04202,-2.83218 0.649432,-3.43959 0.620498,-0.6205 0.797313,-0.64943 3.96875,-0.64943 h 3.319318 v -3.31931 c 0,-3.17144 0.02893,-3.34826 0.649432,-3.96876 0.610581,-0.61058 0.820301,-0.64893 3.505729,-0.64101 3.994573,0.0118 3.877759,-0.12158 3.811077,4.35025 l -0.05336,3.57883 h 3.331632 c 3.18451,0 3.36031,0.0287 3.981062,0.64943 0.60741,0.60741 0.649433,0.82998 0.649433,3.43959 0,1.53458 -0.105177,2.79015 -0.233725,2.79015 -0.128547,0 -0.295994,0.23812 -0.372104,0.52916 -0.07611,0.29104 -0.328121,0.52917 -0.560025,0.52917 -0.231905,0 -0.421646,0.11906 -0.421646,0.26458 0,0.16169 -1.234723,0.26459 -3.175,0.26459 h -3.175 v 3.31931 c 0,3.17144 -0.02893,3.34826 -0.649432,3.96875 -0.607994,0.608 -0.823239,0.6484 -3.373437,0.63325 -2.524125,-0.015 -2.767688,-0.0628 -3.319318,-0.652 z m 6.163589,-1.03958 c 0.620498,-0.6205 0.649432,-0.79731 0.649432,-3.96875 v -3.31932 h 3.319318 c 3.171437,0 3.34825,-0.0289 3.968749,-0.64943 0.582498,-0.5825 0.649433,-0.87007 0.649433,-2.79015 0,-1.92008 -0.06694,-2.20765 -0.649433,-2.79015 -0.620499,-0.6205 -0.797312,-0.64943 -3.968749,-0.64943 h -3.319318 v -3.30528 c 0,-3.01715 -0.05029,-3.36312 -0.576881,-3.96875 -0.529856,-0.60939 -0.757296,-0.66347 -2.790151,-0.66347 -1.997115,0 -2.276698,0.0634 -2.862704,0.64943 -0.620498,0.6205 -0.649431,0.79731 -0.649431,3.96875 v 3.31932 h -3.319319 c -3.171436,0 -3.348251,0.0289 -3.96875,0.64943 -0.582497,0.5825 -0.649431,0.87007 -0.649431,2.79015 0,1.92008 0.06693,2.20765 0.649431,2.79015 0.620499,0.6205 0.797314,0.64943 3.96875,0.64943 h 3.319319 v 3.31675 c 0,3.07481 0.04342,3.36313 0.595312,3.95257 0.532944,0.56921 0.825257,0.63751 2.790152,0.652 1.988853,0.0147 2.255788,-0.0448 2.844271,-0.63325 z m -4.183624,-3.44848 c -0.543278,-1.09794 -0.987778,-2.05382 -0.987778,-2.12417 0,-0.0704 1.071563,-0.12792 2.38125,-0.12792 1.309688,0 2.377486,0.0893 2.372885,0.19844 -0.02337,0.55445 -2.03101,3.91219 -2.377295,3.97599 -0.266897,0.0492 -0.732085,-0.59461 -1.389062,-1.92234 z m -5.948716,-5.8975 c -2.033385,-1.02624 -2.456509,-1.71928 -1.314715,-2.15339 0.331933,-0.1262 1.247185,-0.53997 2.033893,-0.91949 0.786708,-0.37952 1.467627,-0.69004 1.513153,-0.69004 0.04552,0 0.08277,1.07156 0.08277,2.38125 0,1.30969 -0.0893,2.37417 -0.198438,2.36552 -0.10914,-0.009 -1.06164,-0.45138 -2.116667,-0.98385 z m 7.606771,0.735 c 0,-0.14552 0.160141,-0.26459 0.355868,-0.26459 0.195728,0 0.546011,-0.2101 0.778408,-0.4669 0.386839,-0.42745 0.386888,-0.54052 5.82e-4,-1.33817 -0.242538,-0.50078 -0.84145,-1.08526 -1.408482,-1.37454 -0.946911,-0.48308 -1.00371,-0.48429 -1.414775,-0.0301 -0.235551,0.26027 -0.428267,0.61268 -0.428267,0.78312 0,0.17044 -0.119063,0.3099 -0.264584,0.3099 -0.341667,0 -0.333489,-0.17062 0.04179,-0.87183 0.532139,-0.99432 0.948327,-1.24484 2.068007,-1.24484 1.467003,0 2.391509,0.89473 2.379708,2.30308 -0.009,1.07655 -0.318306,1.60322 -1.250051,2.12869 -0.709073,0.39989 -0.858202,0.41139 -0.858202,0.0661 z m 4.762501,-2.11667 c 0,-1.30969 0.05756,-2.38125 0.127914,-2.38125 0.07035,0 1.022853,0.44283 2.116667,0.98406 1.206011,0.59675 1.988752,1.14666 1.988752,1.39719 0,0.25053 -0.782741,0.80044 -1.988752,1.39719 -1.093814,0.54123 -2.046314,0.98406 -2.116667,0.98406 -0.07035,0 -0.127914,-1.07156 -0.127914,-2.38125 z m -7.408334,-5.155 c 0,-0.0703 0.442827,-1.02285 0.984061,-2.11666 0.637472,-1.28831 1.139654,-1.98875 1.425833,-1.98875 0.290141,0 0.769703,0.69052 1.397189,2.01183 0.52548,1.10651 0.955417,2.05901 0.955417,2.11667 0,0.0577 -1.071562,0.10483 -2.38125,0.10483 -1.309687,0 -2.38125,-0.0576 -2.38125,-0.12792 z m 66.145835,6.7425 c 0,-0.14552 -0.18173,-0.26458 -0.40384,-0.26458 -0.22211,0 -0.93648,-0.53265 -1.5875,-1.18366 -0.65101,-0.65102 -1.18366,-1.3654 -1.18366,-1.5875 0,-0.22212 -0.11906,-0.40384 -0.26458,-0.40384 -0.14552,0 -0.26459,-0.23813 -0.26459,-0.52917 0,-0.29104 -0.11906,-0.52917 -0.26458,-0.52917 -0.14552,0 -0.26458,-0.23812 -0.26458,-0.52916 0,-0.29105 0.11906,-0.52917 0.26458,-0.52917 0.14552,0 0.26458,0.23812 0.26458,0.52917 0,0.29104 0.11907,0.52916 0.26459,0.52916 0.14552,0 0.26458,0.23813 0.26458,0.52917 0,0.29104 0.11906,0.52917 0.26458,0.52917 0.14552,0 0.26459,0.184 0.26459,0.4089 0,0.22489 0.29224,0.70114 0.64943,1.05833 0.35719,0.35719 0.83344,0.64943 1.05833,0.64943 0.2249,0 0.4089,0.11907 0.4089,0.26459 0,0.14552 0.23813,0.26458 0.52917,0.26458 0.29104,0 0.52917,0.11906 0.52917,0.26458 0,0.14934 0.75157,0.26459 1.72554,0.26459 h 1.72554 l 1.44946,-1.44946 c 0.7972,-0.7972 1.44946,-1.63064 1.44946,-1.85208 0,-0.22145 0.11906,-0.40263 0.26458,-0.40263 0.15119,0 0.26458,-0.79375 0.26458,-1.85208 0,-1.05834 -0.11339,-1.85209 -0.26458,-1.85209 -0.14552,0 -0.26458,-0.18793 -0.26458,-0.41761 0,-0.22969 -0.49113,-0.8895 -1.0914,-1.46624 -0.60027,-0.57674 -1.04658,-1.09344 -0.9918,-1.14822 0.19976,-0.19977 2.61236,2.21983 2.61236,2.61994 0,0.22667 0.11907,0.41213 0.26459,0.41213 0.15434,0 0.26458,0.88195 0.26458,2.11667 0,1.23472 -0.11024,2.11667 -0.26458,2.11667 -0.14552,0 -0.26459,0.18421 -0.26459,0.40937 0,0.54464 -2.2076,2.76563 -2.74896,2.76563 -0.23432,0 -0.42604,0.11906 -0.42604,0.26458 0,0.15434 -0.88194,0.26458 -2.11666,0.26458 -1.23473,0 -2.11667,-0.11024 -2.11667,-0.26458 z M 35.500438,130.39919 V 96.532523 h 42.333335 42.333337 v 33.866667 33.86667 H 77.833773 35.500438 Z"
         id="path4193"
         inkscape:connector-curvature="0" />
      <path
         style="fill:#5b3b6a;stroke-width:0.26458335"
         d="m 69.962418,197.9935 c -0.482393,-0.51522 -0.595312,-0.94101 -0.595312,-2.2448 0,-1.35552 0.102303,-1.71128 0.649433,-2.25841 l 0.64943,-0.64943 h 7.167804 7.167803 l 0.64943,0.64943 c 0.547415,0.54741 0.649433,0.90269 0.649433,2.26165 0,1.42714 -0.08352,1.68573 -0.727604,2.25262 l -0.727604,0.64041 -7.14375,-0.008 -7.14375,-0.008 -0.595313,-0.63583 z m 15.159422,-0.51041 c 0.477856,-0.47785 0.649433,-0.93539 0.649433,-1.73182 0,-0.79642 -0.171577,-1.25396 -0.649433,-1.73181 l -0.649431,-0.64944 h -6.638636 -6.638637 l -0.649431,0.64944 c -0.872723,0.87272 -0.898956,2.54255 -0.05412,3.44488 l 0.595312,0.63582 6.692755,0.0162 6.692757,0.0162 0.649431,-0.64943 z m 13.481725,-0.67348 c 0.08994,-0.14552 1.049464,-0.26459 2.132285,-0.26459 1.13612,0 1.96876,0.1119 1.96876,0.26459 0,0.1545 -0.88715,0.26458 -2.13229,0.26458 -1.354141,0 -2.072602,-0.0966 -1.968755,-0.26458 z m -1.190625,-0.54479 c 0,-0.1541 0.119062,-0.20661 0.264583,-0.11667 0.145521,0.0899 0.264583,0.21603 0.264583,0.2802 0,0.0642 -0.119062,0.11667 -0.264583,0.11667 -0.145521,0 -0.264583,-0.12609 -0.264583,-0.2802 z m 5.82083,0.0156 c 0,-0.14552 0.11907,-0.26458 0.26459,-0.26458 0.14552,0 0.26458,-0.1871 0.26458,-0.41578 0,-0.22867 0.17009,-0.58586 0.37798,-0.79375 0.3741,-0.3741 1.20952,-0.52552 1.20952,-0.21922 0,0.0873 -0.40481,0.56356 -0.89958,1.05833 -0.93585,0.93585 -1.21709,1.08258 -1.21709,0.635 z m -58.671352,-0.93277 c -0.551888,-0.58944 -0.595313,-0.87776 -0.595313,-3.95257 v -3.31674 h -3.175 c -1.940278,0 -3.175,-0.1029 -3.175,-0.26459 0,-0.14552 -0.238125,-0.26458 -0.529167,-0.26458 -0.352778,0 -0.529166,-0.17639 -0.529166,-0.52917 0,-0.29104 -0.119063,-0.52916 -0.264584,-0.52916 -0.159662,0 -0.264583,-1.10644 -0.264583,-2.79015 0,-2.60961 0.04202,-2.83218 0.649432,-3.43959 0.620498,-0.6205 0.797313,-0.64943 3.96875,-0.64943 h 3.319318 v -3.31931 c 0,-3.17144 0.02893,-3.34826 0.649432,-3.96876 0.610581,-0.61058 0.820301,-0.64893 3.505729,-0.64101 1.954818,0.006 3.002432,0.11934 3.319318,0.3599 0.401162,0.30452 0.463021,0.83362 0.463021,3.96033 v 3.60885 h 3.319319 c 3.171437,0 3.34825,0.0289 3.968748,0.64943 0.60741,0.60741 0.649433,0.82998 0.649433,3.43959 0,1.53458 -0.105177,2.79015 -0.233725,2.79015 -0.128547,0 -0.295994,0.23812 -0.372104,0.52916 -0.07611,0.29104 -0.328121,0.52917 -0.560025,0.52917 -0.231905,0 -0.421646,0.11906 -0.421646,0.26458 0,0.16169 -1.234723,0.26459 -3.175,0.26459 h -3.175 v 3.31931 c 0,3.17144 -0.02893,3.34826 -0.649432,3.96875 -0.607994,0.608 -0.823239,0.6484 -3.373437,0.63325 -2.524125,-0.015 -2.767688,-0.0628 -3.319318,-0.652 z m 6.163589,-1.03958 c 0.620498,-0.6205 0.649432,-0.79731 0.649432,-3.96875 V 187.02 h 3.319318 c 3.171437,0 3.34825,-0.0289 3.968749,-0.64943 0.584321,-0.58432 0.649433,-0.86778 0.649433,-2.82722 0,-1.87184 -0.08082,-2.26381 -0.575286,-2.79015 -0.543346,-0.57836 -0.763702,-0.61236 -3.968752,-0.61236 h -3.393462 v -3.35639 c 0,-3.08193 -0.04704,-3.40645 -0.575288,-3.96875 -0.512484,-0.54551 -0.817078,-0.61236 -2.790151,-0.61236 -1.998807,0 -2.278216,0.0634 -2.864297,0.64943 -0.620498,0.6205 -0.649431,0.79731 -0.649431,3.96875 v 3.31932 h -3.30528 c -3.017151,0 -3.363115,0.0503 -3.96875,0.57688 -0.611016,0.53127 -0.66347,0.75479 -0.66347,2.82721 0,1.94633 0.07772,2.33307 0.575287,2.86271 0.543345,0.57836 0.763701,0.61236 3.96875,0.61236 h 3.393463 v 3.35639 c 0,3.08193 0.04704,3.40646 0.575287,3.96875 0.512485,0.54551 0.817078,0.61236 2.790152,0.61236 1.998806,0 2.278215,-0.0633 2.864296,-0.64943 z m -4.183624,-3.44848 c -0.543278,-1.09794 -0.987778,-2.05382 -0.987778,-2.12417 0,-0.0704 1.071563,-0.12792 2.38125,-0.12792 1.309688,0 2.377486,0.0893 2.372885,0.19844 -0.02337,0.55445 -2.03101,3.91219 -2.377295,3.97599 -0.266897,0.0492 -0.732085,-0.59461 -1.389062,-1.92234 z m -5.948716,-5.8975 c -2.033385,-1.02624 -2.456509,-1.71928 -1.314715,-2.15339 0.331933,-0.1262 1.247185,-0.53997 2.033893,-0.91949 0.786708,-0.37952 1.467627,-0.69004 1.513153,-0.69004 0.04552,0 0.08277,1.07156 0.08277,2.38125 0,1.30969 -0.0893,2.37417 -0.198438,2.36552 -0.10914,-0.009 -1.06164,-0.45138 -2.116667,-0.98385 z m 7.606771,0.735 c 0,-0.14552 0.160141,-0.26459 0.355868,-0.26459 0.195728,0 0.546011,-0.2101 0.778408,-0.4669 0.386839,-0.42745 0.386888,-0.54052 5.82e-4,-1.33817 -0.242538,-0.50078 -0.84145,-1.08526 -1.408482,-1.37454 -0.946911,-0.48308 -1.00371,-0.48429 -1.414775,-0.0301 -0.235551,0.26027 -0.428267,0.61268 -0.428267,0.78312 0,0.17044 -0.119063,0.3099 -0.264584,0.3099 -0.341667,0 -0.333489,-0.17062 0.04179,-0.87183 0.532139,-0.99432 0.948327,-1.24484 2.068007,-1.24484 1.467003,0 2.391509,0.89473 2.379708,2.30308 -0.009,1.07655 -0.318306,1.60322 -1.250051,2.12869 -0.709073,0.39989 -0.858202,0.41139 -0.858202,0.0661 z m 4.762501,-2.11667 c 0,-1.30969 0.05756,-2.38125 0.127914,-2.38125 0.07035,0 1.022853,0.44283 2.116667,0.98406 1.206011,0.59675 1.988752,1.14666 1.988752,1.39719 0,0.25053 -0.782741,0.80044 -1.988752,1.39719 -1.093814,0.54123 -2.046314,0.98406 -2.116667,0.98406 -0.07035,0 -0.127914,-1.07156 -0.127914,-2.38125 z m -7.408334,-5.155 c 0,-0.0703 0.442827,-1.02285 0.984061,-2.11666 0.637472,-1.28831 1.139654,-1.98875 1.425833,-1.98875 0.290141,0 0.769703,0.69052 1.397189,2.01183 0.52548,1.10651 0.955417,2.05901 0.955417,2.11667 0,0.0577 -1.071562,0.10483 -2.38125,0.10483 -1.309687,0 -2.38125,-0.0576 -2.38125,-0.12792 z m 59.795835,15.20919 c 0,-0.43657 0.11906,-0.79375 0.26458,-0.79375 0.15119,0 0.26459,-0.79375 0.26459,-1.85209 0,-1.05833 -0.1134,-1.85208 -0.26459,-1.85208 -0.14552,0 -0.26458,-0.19439 -0.26458,-0.43199 0,-0.23759 -0.25721,-0.65506 -0.57158,-0.92772 -0.31438,-0.27265 -0.50019,-0.56713 -0.41292,-0.6544 0.23258,-0.23258 1.51367,1.126 1.51367,1.60521 0,0.2249 0.11906,0.4089 0.26458,0.4089 0.15463,0 0.26458,0.89138 0.26458,2.14497 0,1.68719 -0.0759,2.11586 -0.35556,2.00853 -0.25468,-0.0977 -0.321,0.0444 -0.23374,0.50086 0.0699,0.36558 -0.004,0.63731 -0.1736,0.63731 -0.16249,0 -0.29543,-0.35719 -0.29543,-0.79375 z m 6.35,-8.46667 c 0,-0.15434 0.88194,-0.26458 2.11667,-0.26458 1.23472,0 2.11666,0.11024 2.11666,0.26458 0,0.15434 -0.88194,0.26458 -2.11666,0.26458 -1.23473,0 -2.11667,-0.11024 -2.11667,-0.26458 z m -1.05833,-0.54478 c 0,-0.15411 0.11906,-0.20662 0.26458,-0.11668 0.14552,0.0899 0.26458,0.21603 0.26458,0.2802 0,0.0642 -0.11906,0.11668 -0.26458,0.11668 -0.14552,0 -0.26458,-0.12609 -0.26458,-0.2802 z m 5.82083,0.0156 c 0,-0.14552 0.11906,-0.26458 0.26458,-0.26458 0.14552,0 0.26459,-0.1871 0.26459,-0.41577 0,-0.22868 0.17009,-0.58587 0.37797,-0.79375 0.37411,-0.37411 1.20953,-0.52553 1.20953,-0.21923 0,0.0873 -0.40482,0.56356 -0.89959,1.05833 -0.93585,0.93585 -1.21708,1.08258 -1.21708,0.635 z m 2.11667,-2.64583 c 0,-0.43656 0.11906,-0.79375 0.26458,-0.79375 0.15119,0 0.26458,-0.79375 0.26458,-1.85208 0,-1.05834 -0.11339,-1.85209 -0.26458,-1.85209 -0.14552,0 -0.26458,-0.23812 -0.26458,-0.52916 0,-0.29104 -0.0904,-0.52917 -0.20094,-0.52917 -0.11052,0 -0.36777,-0.26789 -0.57168,-0.59531 -0.35251,-0.56605 -0.34593,-0.5758 0.13376,-0.19844 0.94059,0.73995 1.16802,1.01963 1.16802,1.43631 0,0.22868 0.11907,0.41577 0.26459,0.41577 0.15463,0 0.26458,0.89138 0.26458,2.14498 0,1.68719 -0.0759,2.11585 -0.35557,2.00853 -0.25467,-0.0977 -0.321,0.0444 -0.23374,0.50086 0.0699,0.36558 -0.004,0.6373 -0.17359,0.6373 -0.16249,0 -0.29543,-0.35719 -0.29543,-0.79375 z M 35.500438,130.39919 V 96.532523 h 42.333335 42.333337 v 33.866667 33.86667 H 77.833773 35.500438 Z"
         id="path4191"
         inkscape:connector-curvature="0" />
      <path
         style="fill:#000000;stroke-width:0.26458335"
         d="m 70.227001,197.72498 c -0.838046,-0.87746 -1.127725,-1.70912 -0.595312,-1.70912 0.145521,0 0.264583,0.184 0.264583,0.4089 0,0.22489 0.292246,0.70114 0.649433,1.05833 l 0.649431,0.64943 h 6.638637 6.638636 l 0.649431,-0.64943 c 0.499022,-0.49902 0.649433,-0.92797 0.649433,-1.85208 0,-0.66146 0.119062,-1.20265 0.264583,-1.20265 0.145521,0 0.264583,0.53975 0.264583,1.19944 0,1.01582 -0.140419,1.33987 -0.917223,2.11667 l -0.91722,0.91722 -6.689551,-0.0182 -6.689548,-0.0182 z m 28.773439,-0.91537 c 0,-0.147 0.705556,-0.26459 1.5875,-0.26459 0.88194,0 1.5875,0.11759 1.5875,0.26459 0,0.14699 -0.70556,0.26458 -1.5875,0.26458 -0.881944,0 -1.5875,-0.11759 -1.5875,-0.26458 z m -54.438022,-1.46194 c -0.556725,-0.59461 -0.595313,-0.86796 -0.595313,-4.21715 v -3.58133 h -3.319318 c -3.171437,0 -3.348252,-0.0289 -3.96875,-0.64943 -0.657496,-0.6575 -0.869886,-1.46724 -0.384849,-1.46724 0.145521,0 0.264584,0.1871 0.264584,0.41578 0,1.00157 0.631207,1.17172 4.346726,1.17172 h 3.590774 v 3.59078 c 0,3.71551 0.170151,4.34672 1.171726,4.34672 0.228675,0 0.415774,0.11907 0.415774,0.26459 0,0.15119 0.79375,0.26458 1.852083,0.26458 1.058333,0 1.852083,-0.11339 1.852083,-0.26458 0,-0.14552 0.187099,-0.26459 0.415774,-0.26459 1.001575,0 1.171727,-0.63121 1.171727,-4.34672 v -3.59078 h 3.590774 c 3.715517,0 4.346726,-0.17015 4.346726,-1.17172 0,-0.22868 0.119062,-0.41578 0.264583,-0.41578 0.453782,0 0.290462,0.75996 -0.312298,1.4532 -0.559721,0.64373 -0.677768,0.66347 -3.968749,0.66347 h -3.39187 v 3.5839 c 0,3.45235 -0.02384,3.60774 -0.649432,4.23333 -0.607994,0.608 -0.823239,0.6484 -3.373437,0.63325 -2.524125,-0.015 -2.767688,-0.0628 -3.319318,-0.652 z m 59.200522,0.52387 c 0,-0.27399 1.35538,-1.49891 1.49931,-1.35499 0.0794,0.0794 -0.16056,0.44919 -0.53318,0.82181 -0.65869,0.6587 -0.96613,0.82836 -0.96613,0.53318 z m 1.5875,-2.23693 c 0,-0.14552 0.11906,-0.26459 0.26458,-0.26459 0.14552,0 0.26459,0.11907 0.26459,0.26459 0,0.14552 -0.11907,0.26458 -0.26459,0.26458 -0.14552,0 -0.26458,-0.11906 -0.26458,-0.26458 z m 0.52917,-1.5875 c 0,-0.43657 0.11906,-0.79375 0.26458,-0.79375 0.14552,0 0.26458,0.35718 0.26458,0.79375 0,0.43656 -0.11906,0.79375 -0.26458,0.79375 -0.14552,0 -0.26458,-0.35719 -0.26458,-0.79375 z m 6.35,-6.87917 c 0,-0.14699 0.70555,-0.26458 1.5875,-0.26458 0.88194,0 1.5875,0.11759 1.5875,0.26458 0,0.14699 -0.70556,0.26458 -1.5875,0.26458 -0.88195,0 -1.5875,-0.11759 -1.5875,-0.26458 z m 4.7625,-0.93807 c 0,-0.27399 1.35538,-1.49891 1.4993,-1.35499 0.0794,0.0794 -0.16055,0.44919 -0.53317,0.82182 -0.6587,0.65869 -0.96613,0.82836 -0.96613,0.53317 z m 1.5875,-2.23693 c 0,-0.14552 0.11906,-0.26458 0.26458,-0.26458 0.14552,0 0.26458,0.11906 0.26458,0.26458 0,0.14552 -0.11906,0.26458 -0.26458,0.26458 -0.14552,0 -0.26458,-0.11906 -0.26458,-0.26458 z m -82.550005,-0.67348 c 0,-0.2249 0.292244,-0.70115 0.649432,-1.05834 0.625594,-0.62559 0.780981,-0.64943 4.233333,-0.64943 2.212879,0 3.583902,0.10122 3.583902,0.26458 0,0.16339 -1.373314,0.26459 -3.590774,0.26459 -3.715519,0 -4.346726,0.17015 -4.346726,1.17172 0,0.22868 -0.119063,0.41578 -0.264584,0.41578 -0.145521,0 -0.264583,-0.18401 -0.264583,-0.4089 z m 23.283334,-0.0982 c 0,-0.27892 -0.148828,-0.56027 -0.330729,-0.62524 -0.181901,-0.065 -0.247103,-0.20812 -0.144892,-0.31813 0.248658,-0.26762 1.004787,0.51103 1.004787,1.03471 0,0.22868 -0.119062,0.41578 -0.264583,0.41578 -0.145521,0 -0.264583,-0.22821 -0.264583,-0.50712 z m 59.795831,-0.8158 c 0,-0.43656 0.11907,-0.79375 0.26459,-0.79375 0.14552,0 0.26458,0.35719 0.26458,0.79375 0,0.43656 -0.11906,0.79375 -0.26458,0.79375 -0.14552,0 -0.26459,-0.35719 -0.26459,-0.79375 z m -67.733331,-3.85538 c 0,-3.71551 -0.170152,-4.34672 -1.171727,-4.34672 -0.228675,0 -0.415774,-0.11906 -0.415774,-0.26458 0,-0.48504 0.80974,-0.27265 1.467235,0.38484 0.625594,0.6256 0.649432,0.78099 0.649432,4.23334 0,2.21287 -0.101216,3.5839 -0.264583,3.5839 -0.163392,0 -0.264583,-1.37332 -0.264583,-3.59078 z m -7.408334,-3.43271 c 0,-0.0794 0.292244,-0.43656 0.649432,-0.79375 0.657495,-0.65749 1.467235,-0.86988 1.467235,-0.38484 0,0.14552 -0.211841,0.26458 -0.470758,0.26458 -0.258916,0 -0.642388,0.23812 -0.852159,0.52916 -0.357806,0.49644 -0.79375,0.7078 -0.79375,0.38485 z M 35.500438,130.39919 V 96.532523 h 42.333335 42.333337 v 33.866667 33.86667 H 77.833773 35.500438 Z"
         id="path4189"
         inkscape:connector-curvature="0" />
      <path
         inkscape:connector-curvature="0"
         id="path4279"
         d="m 106.86131,191.00199 c 0.10097,2.45663 -1.61028,4.71165 -3.81254,5.66179 -1.45557,0.66601 -3.160272,0.73215 -4.661313,0.17439 -3.243256,-0.99413 -5.05575,-5.00726 -3.773645,-8.12184 0.679391,-1.58266 1.98153,-2.92506 3.630805,-3.48428 2.492803,-0.91399 5.611093,-0.24851 7.244913,1.92258 0.87851,1.07536 1.37592,2.45784 1.37178,3.84736 z"
         style="opacity:1;fill:#ff91c4;fill-opacity:1;stroke:#5c406c;stroke-width:0.861;stroke-linecap:round;stroke-linejoin:round;stroke-miterlimit:4;stroke-dasharray:none;stroke-opacity:1" />
      <path
         sodipodi:nodetypes="sccs"
         inkscape:connector-curvature="0"
         id="path5094"
         d="m 96.217028,187.01859 c -2.169409,2.29728 -1.403163,4.94449 -1.403163,4.94449 0.792599,-4.59741 3.822588,-6.16909 8.533055,-5.95821 0,0 -4.316977,-1.965 -7.129892,1.01372 z"
         style="fill:#e5cdc4;fill-opacity:1;fill-rule:evenodd;stroke:#e5cdc4;stroke-width:0.26458332px;stroke-linecap:butt;stroke-linejoin:miter;stroke-opacity:1" />
      <path
         inkscape:connector-curvature="0"
         id="path4279-9"
         d="m 120.18798,179.78138 c 0.10097,2.45663 -1.61028,4.71165 -3.81254,5.66179 -1.45557,0.66601 -3.16027,0.73215 -4.66131,0.17439 -3.24325,-0.99413 -5.05575,-5.00726 -3.77364,-8.12184 0.67939,-1.58266 1.98153,-2.92506 3.6308,-3.48428 2.4928,-0.91399 5.61109,-0.24851 7.24491,1.92258 0.87851,1.07536 1.37592,2.45784 1.37178,3.84736 z"
         style="opacity:1;fill:#ff8135;fill-opacity:1;stroke:#5c406c;stroke-width:0.861;stroke-linecap:round;stroke-linejoin:round;stroke-miterlimit:4;stroke-dasharray:none;stroke-opacity:1" />
      <path
         sodipodi:nodetypes="sccs"
         inkscape:connector-curvature="0"
         id="path5094-3"
         d="m 109.5437,175.79798 c -2.16941,2.29728 -1.30867,4.99174 -1.30867,4.99174 0.7926,-4.59741 3.68085,-6.21634 8.39131,-6.00546 0,0 -4.26972,-1.965 -7.08264,1.01372 z"
         style="fill:#e5cdc4;fill-opacity:1;fill-rule:evenodd;stroke:#e5cdc4;stroke-width:0.26458332px;stroke-linecap:butt;stroke-linejoin:miter;stroke-opacity:1" />
      <path
         inkscape:connector-curvature="0"
         id="text5154"
         d="m 115.8346,183.00417 c 0.47413,0 0.94827,0 1.4224,0 -0.57291,-2.30482 -1.14582,-4.60963 -1.71873,-6.91445 -0.47413,0 -0.94827,0 -1.4224,0 -1.49484,2.30482 -2.98968,4.60963 -4.48452,6.91445 0.47084,0 0.94169,0 1.41253,0 0.44393,-0.50737 0.60894,-1.52937 1.45009,-1.30387 1.00488,0 2.00977,0 3.01466,0 0.10866,0.43462 0.21731,0.86925 0.32597,1.30387 z m -0.60255,-2.51884 c -0.85607,0 -1.71215,0 -2.56822,0 0.62094,-0.8078 1.39623,-2.52324 1.91999,-2.75961 0.21608,0.91987 0.43215,1.83974 0.64823,2.75961 z"
         style="font-style:normal;font-variant:normal;font-weight:normal;font-stretch:normal;font-size:15.875px;line-height:125%;font-family:'Nexa Bold';-inkscape-font-specification:'Nexa Bold, ';letter-spacing:0px;word-spacing:0px;fill:#af4282;fill-opacity:1;stroke:none;stroke-width:0.26458332px;stroke-linecap:butt;stroke-linejoin:miter;stroke-opacity:1" />
      <path
         inkscape:connector-curvature="0"
         id="text5162"
         d="m 74.142695,196.90756 c 0.05566,-0.53535 -0.12989,-1.11105 0.133783,-1.61263 0.334301,-0.39011 0.854492,0.0638 0.829707,0.47813 0.03375,0.34729 -0.282175,0.98866 0.16837,1.1345 0.545532,0.14946 0.278362,-0.4715 0.348347,-0.77999 -0.008,-0.42753 0.04343,-0.94268 -0.286849,-1.2693 -0.348596,-0.32774 -0.982731,-0.36194 -1.302453,0.0241 -0.416763,0.0202 -0.785712,-0.61661 -1.201846,-0.144 -0.243219,0.26372 -0.33934,-0.3433 -0.644554,-0.087 -0.218844,0.15919 -0.07022,0.43486 -0.10825,0.65858 0,0.53251 0,1.06503 0,1.59755 0.186502,0 0.373003,0 0.559505,0 0.0514,-0.5332 -0.119996,-1.11159 0.123521,-1.61055 0.358803,-0.44991 1.038312,0.15 0.820952,0.60863 0.03888,0.37844 -0.212927,1.19239 0.454926,1.00191 l 0.05244,-1e-5 0.0524,1e-5 z m 4.290235,-0.93098 c 0.126643,-0.60446 -0.259998,-1.34753 -0.922824,-1.39176 -0.673597,-0.13067 -1.438895,0.38624 -1.428112,1.10557 -0.05121,0.61875 0.433437,1.26942 1.081664,1.27029 0.366929,0.007 0.958847,0.002 1.072932,-0.42745 -0.26606,-0.53937 -0.722341,0.14127 -1.150372,-0.11225 -0.449828,-0.0602 -0.383189,-0.63437 0.08396,-0.45101 0.418455,0.0349 0.841352,-0.011 1.262752,0.007 z m -1.756481,-0.4632 c 0.118622,-0.55036 1.059124,-0.61224 1.210794,-0.0533 -0.381268,0.12606 -0.788696,0.0241 -1.182672,0.0533 h -0.02388 z m 4.416353,1.39418 c -0.05584,-0.65111 0.159743,-1.38483 -0.236433,-1.96283 -0.328113,-0.39546 -1.002545,-0.46752 -1.362451,-0.0755 -0.196036,0.001 -0.207641,-0.42504 -0.465657,-0.22951 -0.339258,0.1042 -0.114013,0.56734 -0.173479,0.83662 0,0.47709 0,0.95417 0,1.43126 0.184973,0 0.369946,0 0.554919,0 0.06095,-0.54328 -0.1564,-1.16337 0.189758,-1.64225 0.384645,-0.39836 1.109975,0.0973 0.933667,0.60102 0.105463,0.31507 -0.215226,0.89741 0.167257,1.04123 0.130806,0 0.261613,0 0.392419,0 z m 0.405011,-2.26095 c 0.04924,0.64522 -0.141511,1.3594 0.2124,1.94463 0.299409,0.38694 0.960303,0.51237 1.314445,0.13139 0.250259,-0.0837 0.355884,0.44296 0.641054,0.1565 0.169238,-0.23354 0.03005,-0.54994 0.07013,-0.82545 0,-0.46903 0,-0.93807 0,-1.4071 -0.184973,0 -0.369947,0 -0.55492,0 -0.06094,0.54328 0.156403,1.16337 -0.189758,1.64225 -0.384644,0.39836 -1.109975,-0.0973 -0.933667,-0.60102 -0.106085,-0.31756 0.256398,-1.04954 -0.269654,-1.04123 -0.09668,-1e-5 -0.193351,-1e-5 -0.290027,3e-5 z"
         style="font-style:normal;font-variant:normal;font-weight:normal;font-stretch:normal;font-size:15.875px;line-height:125%;font-family:'Nexa Bold';-inkscape-font-specification:'Nexa Bold, ';letter-spacing:0px;word-spacing:0px;fill:#5b3b6a;fill-opacity:1;stroke:none;stroke-width:0.26458332px;stroke-linecap:butt;stroke-linejoin:miter;stroke-opacity:1" />
      <path
         sodipodi:nodetypes="ccccccccccccccccccccccc"
         inkscape:connector-curvature="0"
         id="text5154-1"
         d="m 99.099855,191.62553 c 0.908435,0.0881 1.875725,-0.20103 2.735585,0.20918 0.2881,0.11428 0.3704,0.49377 0.31981,0.7739 -0.14276,0.51536 -0.71525,0.74173 -1.19649,0.81736 -0.60673,-0.0472 -1.910266,0.1684 -2.181172,-0.22694 -0.05746,-0.37186 0.217613,-0.69759 0.222264,-1.0734 0.03334,-0.1667 0.06668,-0.3334 0.100003,-0.50011 z m 0.543278,-2.73614 c 0.809617,0.122 1.663927,-0.20849 2.443907,0.12366 0.26284,0.11851 0.53719,0.34873 0.45119,0.66966 -0.59156,1.22714 -2.2139,0.79653 -3.211186,0.79706 0.105363,-0.53011 0.210733,-1.06023 0.316089,-1.59034 z m 2.232377,-1.18533 h -3.279421 c -0.460965,2.30481 -0.921926,4.60963 -1.382889,6.91444 1.522924,-0.0535 3.06355,0.13213 4.57175,-0.15141 1.11651,-0.30555 1.97579,-1.53664 1.66591,-2.69295 -0.14648,-0.28106 -0.51487,-0.44753 -0.56249,-0.78976 0.088,-0.35351 0.60684,-0.27785 0.71782,-0.65202 0.4518,-0.69236 0.40995,-1.76879 -0.28819,-2.28667 -0.42101,-0.27436 -0.95068,-0.33325 -1.44249,-0.34163 z"
         style="font-style:normal;font-variant:normal;font-weight:normal;font-stretch:normal;font-size:15.875px;line-height:125%;font-family:'Nexa Bold';-inkscape-font-specification:'Nexa Bold, ';letter-spacing:0px;word-spacing:0px;fill:#af4282;fill-opacity:1;stroke:none;stroke-width:0.26458332px;stroke-linecap:butt;stroke-linejoin:miter;stroke-opacity:1" />
    </g>
  </g>
</svg>
